<?xml version="1.0" encoding="UTF-8"?>
<svg width="150mm" height="150mm" version="1.1" viewBox="0 0 566.93 566.93" xml:space="preserve" xmlns="http://www.w3.org/2000/svg" xmlns:xlink="http://www.w3.org/1999/xlink"><g transform="matrix(1.277 0 0 1.277 -432.74 -219.45)"><g><circle id="a" transform="matrix(-.8344 .55116 .55116 .8344 0 0)" cx="-249.59" cy="640.48" r="213.68" display="none" fill="none" stroke="#ffea00" stroke-width="5.7313"/><text display="none" fill="#000000" font-family="Cinzel" font-size="26.667px" vector-effect="non-scaling-stroke" style="-inkscape-stroke:hairline" xml:space="preserve"><textPath xlink:href="#a">Nulla  Debita  ~  Nulli  Domini</textPath></text><g stroke="#000" stroke-width=".75591" aria-label="Nulla  Debita  ~  Nulli  Domini"><path d="m400.07 506.18-4.1099 22.282-2.1968 1.9184 4.0884-22.267zm-13.789 10.236-1.5238 1.1238-1.3137-1.7813 0.21461-0.15828t0.14245 0.19315q0.14246 0.19315 0.15828 0.21461 0.39571 0.53653 1.0669 0.63793 0.67121 0.1014 1.2077-0.2943zm0.6806 0.92284q-0.53653 0.3957-0.63793 1.0669-0.1014 0.6712 0.2943 1.2077 0.0158 0.0215 0.15828 0.21461 0.14246 0.19315 0.14246 0.19315l-0.21462 0.15828-1.3137-1.7813 1.5238-1.1238zm13.109-11.159-0.5054 1.8307-14.127 10.452-0.72809-0.98722 12.662-9.3385q1.0945-0.80723 1.8095-1.5002 0.73075-0.67148 0.73075-0.67148zm9.0166 12.9-12.576 9.2752q-0.68676 0.5065-1.2989 1.0243-0.59072 0.50193-0.96683 0.84559-0.33882 0.34929-0.33882 0.34929l-0.14245-0.19315 0.42519-1.8046 14.186-10.462zm1.2662 1.7169-0.21461 0.15828t-0.14245-0.19316q-0.14245-0.19315-0.14245-0.19315-0.39571-0.53653-1.0669-0.63793-0.64975-0.11722-1.2236 0.27284l-0.0475-0.0644 1.5238-1.1238zm-3.2606-4.421 1.3137 1.7813-1.5238 1.1238-0.0316-0.0429q0.54216-0.43299 0.6221-1.0884 0.11723-0.64975-0.2943-1.2077 0 0-0.14245-0.19315-0.14246-0.19316-0.15828-0.21462z"/><path d="m411 525.43-7.5035 6.7308q-1.9255 1.7272-2.1646 3.697-0.22132 1.9897 1.31 3.6968 1.6916 1.8858 3.7052 2.014 2.0314 0.14805 3.8577-1.4901l7.7219-6.9267 0.81909 0.91313-7.7219 6.9267q-2.0645 1.8519-4.4684 1.608-2.3662-0.24176-4.4318-2.5444-2.0477-2.2828-2.0675-4.701-2e-3 -2.3984 2.0625-4.2502l7.7418-6.9445zm-1.104-1.2307-1.0521 0.94374-0.0356-0.0397q0.33951-0.34037 0.32843-0.83195 0.0266-0.48954-0.32955-0.88655 0 0-0.14245-0.15881-0.12465-0.13895-0.12465-0.13895l0.19851-0.17807zm2.2258 2.4813-0.19851 0.17807t-0.14245-0.15881q-0.12464-0.13895-0.12464-0.13895-0.33832-0.37717-0.86347-0.44344-0.4875-0.0642-0.84481 0.25628l-0.0356-0.0397 1.0521-0.94374zm5.8405 6.511-1.0521 0.94373-0.0356-0.0397q0.35731-0.32051 0.34623-0.8121 9e-3 -0.50939-0.34735-0.9064 0 0-0.14246-0.15881-0.12464-0.13895-0.12464-0.13895l0.19851-0.17806zm1.9053 2.124-0.19851 0.17806t-0.14245-0.15881q-0.12465-0.13895-0.12465-0.13895-0.33832-0.37716-0.84566-0.42359-0.4875-0.0642-0.86262 0.23643l-0.0356-0.0397 1.0521-0.94374z"/><path d="m423.4 538.6-11.066 11.557-1.2327-1.1803 11.066-11.557zm-5.3127 15.92-0.61024 0.5602-5.1812-4.9611 0.57172-0.59708zm3.1442-1.1244-3.6966 1.74-2.9276-2.8033 1.2266 0.03q0.96304 0.92213 1.7991 1.2058 0.87372 0.28281 1.7008 0.1517 0.84546-0.15037 1.7053-0.50852zm-8.9109-5.6157-0.92994 1.4724-1.6757-1.6045 0.18443-0.19261t0.13483 0.1291q0.13482 0.1291 0.13482 0.1291 0.48152 0.46107 1.0848 0.44798 0.60326-0.0131 1.0283-0.41839zm9.8413-8.003 1.1803-1.2327 1.4253 1.3648-0.18443 0.1926t-0.11557-0.11065q-0.11556-0.11066-0.11556-0.11066-0.46226-0.44262-1.104-0.46642-0.60407-0.0246-1.0283 0.41839zm-1.1364-1.0881-0.0385-0.0369q0.40492-0.46144 0.35413-1.0639-0.0324-0.6217-0.51388-1.0828 0 0-0.11556-0.11065-0.11557-0.11066-0.11557-0.11066l0.18443-0.19261 1.4253 1.3648z"/><path d="m432.7 547.1-10.281 12.26-1.3077-1.0966 10.281-12.26zm-4.2532 16.236-0.57204 0.59915-5.4965-4.6093 0.53118-0.63342zm3.0634-1.329-3.5741 1.9795-3.1058-2.6045 1.2259-0.0508q1.0217 0.85674 1.8745 1.0847 0.89044 0.22469 1.707 0.0394 0.83374-0.2057 1.6681-0.61967zm-9.2612-5.017-0.831 1.5305-1.7777-1.4907 0.17135-0.20433t0.14303 0.11994 0.14303 0.11994q0.51083 0.42837 1.1119 0.3756 0.60109-0.0528 0.99849-0.48516zm9.2932-8.6335 1.0966-1.3077 1.512 1.268-0.17135 0.20433t-0.1226-0.10281q-0.1226-0.1028-0.1226-0.1028-0.49039-0.41124-1.1323-0.39274-0.60439 0.0152-0.99849 0.48517zm-1.2056-1.011-0.0409-0.0343q0.37367-0.48709 0.28333-1.0849-0.0732-0.61822-0.58403-1.0466 0 0-0.1226-0.10281t-0.1226-0.10281l0.17135-0.20433 1.512 1.268z"/><path d="m446.26 557.24-3.4946 17.448-1.7116-1.2282 3.4542-14.556zm-12.592 8.7205q-0.70473 0.47895-0.66571 1.0649 0.0546 0.56431 0.44454 0.84416l0.17333 0.12438-0.15547 0.21665-4.1381-2.9695 0.15547-0.21666t0.0867 0.0622 0.0867 0.0622q0.45498 0.32649 1.1493 0.3652 0.70985 0.0171 1.5851-0.47082zm12.592-8.7205-0.92109 1.6038-13.388 8.1825-1.3649-0.97947 13.033-7.3215t0.29489-0.18225q0.31656-0.16671 0.73252-0.42619 0.45317-0.26561 0.84747-0.54064 0.39429-0.27503 0.57143-0.47614zm-3.3669 10.089-0.46642 0.64997-5.7414-4.12 0.46641-0.64997zm-1.3826 4.2594 1.6466 1.1816q-0.20362 0.96984 0.0398 1.6369 0.25898 0.64535 0.6923 0.9563 0 0 0.0867 0.0622t0.0867 0.0622l-0.15547 0.21666-4.4415-3.1872 0.15547-0.21665 0.17333 0.12437q0.36831 0.2643 0.92039 0.13531 0.56762-0.15065 0.79571-0.97164z"/><path d="m473.08 570.83q2.5454 1.2894 3.9183 3.3001 1.4087 1.999 1.5273 4.4206 0.14233 2.4336-1.1229 4.9314t-3.3115 3.8228q-2.0104 1.3133-4.4675 1.3839-2.4333 0.0827-4.9787-1.2067l-5.0908-2.5787 0.33771-0.72571t0.49957 0.25305q0.52335 0.26511 1.2846 0.65071 0.78503 0.39766 1.5463 0.78326 0.76124 0.38561 1.2608 0.63866 0.52335 0.2651 0.52335 0.2651 2.0458 1.0363 4.0265 0.84393 2.0045-0.18035 3.7047-1.4714 1.724-1.279 2.8808-3.5627 1.1568-2.2837 1.168-4.4303 0.035-2.1345-1.0055-3.8573-1.0405-1.7228-3.0625-2.747 0 0-0.54714-0.27716-0.52335-0.2651-1.3322-0.6748-0.78503-0.39766-1.5938-0.80737-0.78503-0.39765-1.3322-0.6748-0.54714-0.27716-0.54714-0.27716l0.3615-0.71366zm-4.6864-2.3739-8.4351 16.652-1.5463-0.78326 8.4351-16.652zm-9.0304 14.168-0.87966 1.7366-1.9031-0.96402 0.1205-0.23788t0.14273 0.0723q0.16652 0.0843 0.16652 0.0843 0.61851 0.3133 1.2636 0.10201 0.68094-0.22304 1.018-0.8295zm6.6758-13.179-0.0714-0.0362q0.31331-0.6185 0.0782-1.2757-0.22303-0.68094-0.84154-0.99424 0 0-0.14273-0.0723t-0.14273-0.0723l0.0967-0.24994 1.9031 0.96401z"/><path d="m484.69 579.13-6.0289 14.821-1.5809-0.64308 6.0289-14.821zm0.92717 16.758-0.3609 0.74564-6.6446-2.703 0.31149-0.76574zm1.6927-7.4874-0.30145 0.74103-5.533-2.2508 0.30144-0.74103zm4-6.5776-0.31149 0.76573-6.6693-2.713 0.31149-0.76574zm-3.1841 11.861-2.7954 2.9796-3.7546-1.5273 1.1513-0.42409q1.235 0.50241 2.1168 0.45804 0.91646-0.059 1.637-0.48564 0.73057-0.45131 1.3979-1.1011zm-1.0973-4.5919-0.57275 1.408-0.27171-0.11053 0.13062-0.32111q0.17082-0.41992 0.0444-0.81682-0.11638-0.42159-0.63511-0.63261l0.0201-0.0494zm0.834-2.0502-0.57275 1.408-1.2845-0.52251 0.0201-0.0494q0.51872 0.21101 0.88631 0.0151 0.37764-0.22063 0.54846-0.64055l0.13063-0.32112zm3.166-4.5274-0.69332 1.7044-0.27172-0.11053 0.15073-0.37052q0.21101-0.51872 0.0159-1.0299-0.1704-0.50115-0.73852-0.73226l0.0301-0.0741zm0.44212-1.0868-0.26125 0.64223-2.7154-1.3925q0.76574 0.3115 1.6805 0.53968 0.92483 0.20348 1.2962 0.2106zm-13.698 10.319-0.32197 1.7115-2.149-0.8742 0.10049-0.24701t0.1729 0.0703q0.17291 0.0703 0.17291 0.0703 0.61753 0.2512 1.1735 0.0168 0.55599-0.23445 0.80175-0.76783zm4.7528-11.684-0.0494-0.0201q0.2064-0.57817-0.0381-1.1095t-0.86202-0.78249q0 0-0.17291-0.0703t-0.17291-0.0703l0.10048-0.24701 2.149 0.8742z"/><path d="m495.72 583.4 3.0146 0.9909q0.684 0.22483 1.529 0.64294 0.87037 0.42644 1.5815 1.0812t1.0186 1.598q0.30752 0.94319-0.10883 2.2098-0.24981 0.76-0.87164 1.2854-0.62183 0.52544-1.405 0.77326-0.77489 0.2225-1.5425 0.16667 1.1997 0.53469 1.9455 1.4254 0.77948 0.87376 1.0537 1.9183 0.27422 1.0445-0.0589 2.0579-0.40802 1.2413-1.2148 1.9025-0.77313 0.64413-1.7673 0.85067t-2.0488 0.0845q-1.0546-0.12209-1.992-0.43019l-3.0907-1.0159t0.0583-0.17733q0.0919-0.19434 0.15024-0.37167 0.0666-0.20267 0.0666-0.20267l3.04 0.99924q1.0893 0.35806 2.0672 0.28651 1.0116-0.0886 1.7764-0.70735 0.7648-0.61879 1.1562-1.8094 0.39969-1.216 0.10917-2.1255-0.28219-0.93487-1.0186-1.598-0.7281-0.68845-1.7251-1.1565-0.98871-0.49341-2.0274-0.83481l0.0833-0.25334q0.684 0.22483 1.5026 0.38163 0.81864 0.15681 1.5772 0.0693 0.79224-0.10451 1.4228-0.57095 0.63884-0.49177 0.98024-1.5304 0.5246-1.596-0.17958-2.6134-0.69584-1.0428-2.3425-1.584l-2.7613-0.90764q8e-3 -0.0253-9e-3 -0.22765 0.0159-0.21932 0.0236-0.41331 8e-3 -0.19398 8e-3 -0.19398zm1.2667 0.41634-4.9962 15.2-1.596-0.5246 4.9962-15.2zm-5.9832 13.079-0.53292 1.6213-1.9-0.62452 0.0833-0.25334t0.152 0.05 0.152 0.05q0.65866 0.2165 1.1972-0.0556 0.5639-0.26378 0.77242-0.81278zm3.9303-11.957-0.076-0.025q0.17451-0.61633-0.13125-1.1379-0.28043-0.51323-0.93909-0.72973 0 0-0.152-0.05t-0.152-0.05l0.0833-0.25334 1.9 0.62453z"/><path d="m510.94 588.02-4.1338 15.457-1.623-0.43406 4.1338-15.457zm-5.2386 13.395-0.44094 1.6487-2.1897-0.58562 0.0689-0.25762t0.18033 0.0482 0.18033 0.0482q0.72131 0.19291 1.321-0.0884 0.62547-0.27439 0.8028-0.83425zm1.4684 0.39272 0.0773 0.0207q-0.12581 0.57363 0.25342 1.1167 0.40499 0.54998 1.1263 0.74289 0 0 0.15457 0.0413 0.18033 0.0482 0.18033 0.0482l-0.0431 0.26451-2.1897-0.58563zm3.252-12.159 0.44094-1.6487 2.1897 0.58563-0.0947 0.25072t-0.18033-0.0482q-0.15457-0.0413-0.15457-0.0413-0.72131-0.19292-1.3468 0.0815-0.59281 0.25551-0.77704 0.84113zm-1.4684-0.39271-0.0773-0.0207q0.1327-0.5994-0.27918-1.1236-0.37923-0.54309-1.1005-0.736-0.0258-7e-3 -0.20609-0.0551-0.15457-0.0413-0.15457-0.0413l0.0689-0.25761 2.1897 0.58563z"/><path d="m522 590.68-3.3028 15.574-1.6956-0.35961 3.3028-15.574zm6.3351 1.2345-0.16597 0.78259-14.321-3.0373 0.16597-0.7826zm-0.15491 0.73042-0.38173 1.8-0.28696-0.0609 0.0885-0.41738q0.11618-0.54782-0.17157-0.99049-0.25614-0.46321-0.8506-0.61655l0.0111-0.0522zm0.24343-1.1478-0.14384 0.67825-2.8664-0.88049q0.52173 0.11064 1.1067 0.18018 0.61659 0.049 1.1344 0.0498 0.51777 7.7e-4 0.76915-0.0277zm-11.016 12.738-0.35407 1.6695-1.9043-0.40387 0.0553-0.26087q0.0261 6e-3 0.15652 0.0332 0.15652 0.0332 0.15652 0.0332 0.62607 0.13278 1.1581-0.19055t0.67979-0.8917zm1.5652 0.33194 0.0783 0.0166q-0.0956 0.57944 0.25933 1.0909 0.35495 0.51144 0.98103 0.64421 0 0 0.13043 0.0277 0.15652 0.0332 0.15652 0.0332l-0.0553 0.26087-1.9043-0.40387zm-3.523-14.622-0.0111 0.0522q-0.60553-0.10115-1.0537 0.21269-0.41658 0.29329-0.53276 0.84111l-0.0885 0.41738-0.28695-0.0609 0.38173-1.8zm-1.3478-1.4853q0.21818 0.12805 0.66561 0.33198 0.47351 0.20946 1.0569 0.41497 0.58892 0.17941 1.1106 0.29006l-2.977-0.35876z"/><path d="m534.64 592.35 5.0614 17.06-2.0871-0.28636-3.746-14.484zm-7.0599 13.593q-0.39936 0.7527-0.0911 1.2526 0.31187 0.47346 0.78742 0.53871l0.21135 0.029-0.0362 0.2642-5.0461-0.69234 0.0362-0.26419t0.10567 0.0145q0.10568 0.0145 0.10568 0.0145 0.5548 0.0761 1.1868-0.214 0.6356-0.31654 1.1816-1.1568zm7.0599-13.593-0.0652 1.8483-8.0146 13.489-1.6644-0.22836 8.1028-12.562t0.17559-0.29891q0.20202-0.29528 0.44857-0.71903 0.2766-0.44655 0.49674-0.87393 0.22013-0.42737 0.2828-0.68794zm1.7364 10.493-0.10875 0.79258-7.0011-0.96058 0.10874-0.79257zm0.76741 4.4119 2.0079 0.27548q0.27304 0.95263 0.79989 1.4287 0.53048 0.44962 1.0589 0.52211 0 0 0.10568 0.0145 0.10567 0.0145 0.10567 0.0145l-0.0362 0.26419-5.4159-0.74308 0.0362-0.26419 0.21135 0.029q0.44913 0.0616 0.87699-0.31033 0.43149-0.39838 0.24963-1.2308z"/><path d="m556.66 604.7-1.2-3e-3q-0.21039-1.2538 0.11149-2.0531 0.34854-0.79919 1.0428-1.1976 0.69433-0.42503 1.5211-0.44976 0.69333 2e-3 1.4391 0.40339 0.74579 0.37508 1.4645 0.91011 0.74548 0.50842 1.4111 0.93665 0.66573 0.40157 1.1724 0.40276 0.55994 0.028 1.0406-0.26423 0.48069-0.2922 0.66867-0.85176 0.21471-0.58617-0.0501-1.3868l1.2 3e-3q0.31699 1.2808-0.0583 2.1065-0.37528 0.82578-1.1496 1.224-0.77421 0.37151-1.6542 0.36944-0.69333-2e-3 -1.4124-0.37665-0.71906-0.40169-1.4379-0.91005-0.69208-0.53496-1.3578-0.93653-0.66573-0.40156-1.279-0.42967-0.7466-0.0284-1.228 0.55712-0.48138 0.58554-0.24457 1.9461z"/><path d="m581.47 590.61 17.699 14.147 0.6533 2.8424-17.695-14.121zm2.5092 16.989 0.27082 1.8739-2.1906 0.31659-0.0381-0.26393t0.23753-0.0343 0.26392-0.0381q0.65982-0.0954 1.0662-0.63908 0.40641-0.54372 0.31105-1.2035zm1.1349-0.16401q0.0954 0.65981 0.63908 1.0662 0.54372 0.4064 1.2035 0.31105 0.0264-4e-3 0.26393-0.0381 0.23753-0.0343 0.23753-0.0343l0.0381 0.26393-2.1906 0.31659-0.27082-1.8739zm-3.6441-16.825 1.3749 1.3102 2.54 17.389-1.214 0.17546-2.2504-15.572q-0.19453-1.346-0.46762-2.3035-0.2467-0.96126-0.2467-0.96126zm15.629-1.8546 2.2352 15.466q0.12206 0.84456 0.28928 1.6287 0.1634 0.75775 0.28865 1.2516 0.14784 0.46363 0.14784 0.46363l-0.23753 0.0343-1.3898-1.2272-2.5213-17.445zm2.1114-0.30514 0.0381 0.26392t-0.23753 0.0343-0.23753 0.0343q-0.65981 0.0954-1.0662 0.63908-0.41022 0.51733-0.33744 1.2074l-0.0792 0.0114-0.27082-1.8739zm-5.4368 0.78575 2.1906-0.31659 0.27082 1.8739-0.0528 8e-3q-0.12557-0.68239-0.66548-1.0624-0.51733-0.41022-1.2035-0.31105 0 0-0.23754 0.0343-0.23753 0.0343-0.26392 0.0381z"/><path d="m603.58 590.06 2.3989 9.7904q0.61558 2.5124 2.2401 3.6518 1.6504 1.1331 3.8779 0.58735 2.4606-0.60289 3.5228-2.3183 1.0882-1.7218 0.50433-4.1046l-2.4687-10.075 1.1914-0.29193 2.4687 10.075q0.66001 2.6936-0.68821 4.6988-1.3287 1.9729-4.3331 2.709-2.9786 0.72982-5.1206-0.39267-2.1161-1.1288-2.7761-3.8225l-2.475-10.101zm-1.6058 0.39346 0.33635 1.3727-0.0518 0.0127q-0.14014-0.45986-0.5789-0.68182-0.41921-0.25421-0.93722-0.12728 0 0-0.2072 0.0508-0.18131 0.0444-0.18131 0.0444l-0.0635-0.25901zm3.2376-0.79327 0.0635 0.259t-0.2072 0.0508q-0.18131 0.0444-0.18131 0.0444-0.49211 0.12057-0.79812 0.55247-0.28645 0.39966-0.17222 0.86587l-0.0518 0.0127-0.33635-1.3727zm8.4954-2.0816 0.33635 1.3727-0.0518 0.0127q-0.11423-0.46621-0.553-0.68817-0.4451-0.24786-0.96312-0.12094 0 0-0.2072 0.0508-0.1813 0.0444-0.1813 0.0444l-0.0635-0.259zm2.7714-0.67904 0.0635 0.25901t-0.2072 0.0508q-0.18131 0.0444-0.18131 0.0444-0.49211 0.12058-0.77221 0.54613-0.28646 0.39965-0.19813 0.87221l-0.0518 0.0127-0.33635-1.3727z"/><path d="m621.04 585.34 4.98 15.205-1.6219 0.5312-4.98-15.205zm11.54 12.187 0.20661 0.80221-6.817 2.2327-0.25729-0.78561zm0.48956-3.3031-0.20692 4.0804-3.852 1.2616 0.60434-1.0678q1.2671-0.41499 1.9112-1.0188 0.6611-0.63743 0.93511-1.4287 0.2657-0.8166 0.35489-1.7438zm-9.1517 5.2141 0.86064 1.514-2.2048 0.72209-0.083-0.25342t0.17739-0.0581q0.1774-0.0581 0.1774-0.0581 0.63355-0.2075 0.90623-0.74577 0.27267-0.53827 0.11542-1.1041zm-2.4224-12.451-0.53119-1.6219 1.8753-0.6142 0.083 0.25342t-0.15206 0.0498q-0.15205 0.0498-0.15205 0.0498-0.60821 0.1992-0.93157 0.75408-0.30632 0.52123-0.11542 1.1041zm-1.4952 0.48969-0.0507 0.0166q-0.21624-0.57457-0.77155-0.8136-0.56362-0.26438-1.1972-0.0569 0 0-0.15205 0.0498-0.15206 0.0498-0.15206 0.0498l-0.083-0.25342 1.8753-0.6142z"/><path d="m632.94 581.13 5.9471 14.854-1.5844 0.63436-5.9471-14.854zm12.299 11.42 0.25775 0.78726-6.6594 2.6663-0.30727-0.76744zm0.27622-3.3278 0.0558 4.0853-3.7629 1.5066 0.53445-1.1044q1.2378-0.49559 1.8417-1.1395 0.61877-0.67861 0.84134-1.4858 0.21266-0.83199 0.24207-1.763zm-8.7976 5.7916 0.95619 1.4555-2.1538 0.86233-0.0991-0.24756t0.17329-0.0694 0.17329-0.0694q0.61891-0.2478 0.85642-0.80249t0.0442-1.1092zm-3.2178-12.27-0.63436-1.5844 1.832-0.73347 0.0991 0.24756t-0.14854 0.0595-0.14854 0.0595q-0.59414 0.23788-0.88117 0.8124-0.27217 0.53984-0.0442 1.1092zm-1.4606 0.5848-0.0495 0.0198q-0.25273-0.55948-0.82226-0.76232-0.57944-0.2276-1.1984 0.0202 0 0-0.14853 0.0595-0.14854 0.0595-0.14854 0.0595l-0.0991-0.24756 1.832-0.73348z"/><path d="m644.92 575.98 6.7273 14.517-1.5243 0.70637-6.7273-14.517zm4.558 13.641 0.71758 1.5485-2.0566 0.95303-0.11212-0.24195t0.16936-0.0785q0.16937-0.0785 0.16937-0.0785 0.67746-0.31394 0.95777-0.91409 0.30451-0.61137 0.082-1.1549zm1.3791-0.63909 0.0726-0.0336q0.27086 0.52108 0.90996 0.69517 0.6633 0.16288 1.3408-0.15107 0 0 0.14517-0.0673 0.16937-0.0785 0.16937-0.0785l0.13631 0.23074-2.0566 0.95304zm-5.2922-11.42-0.71758-1.5485 2.0566-0.95303 0.0879 0.25316t-0.16937 0.0785q-0.14517 0.0673-0.14517 0.0673-0.67746 0.31394-0.98196 0.9253-0.29152 0.57596-0.0578 1.1437zm-1.3791 0.6391-0.0726 0.0336q-0.28207-0.54528-0.93415-0.68396-0.63911-0.17409-1.3166 0.13985-0.0242 0.0112-0.19356 0.0897-0.14517 0.0673-0.14517 0.0673l-0.11212-0.24196 2.0566-0.95303z"/><path d="m665.8 561.47q2.4073-1.5318 4.837-1.6872 2.4379-0.1922 4.5813 0.94091 2.1659 1.1188 3.6691 3.4811 1.5032 2.3623 1.5993 4.7982 0.10425 2.3991-1.0882 4.5486-1.1699 2.1352-3.5772 3.667l-4.8146 3.0637-0.45198-0.66063t0.47245-0.30064q0.49496-0.31495 1.2149-0.77307 0.74244-0.47244 1.4624-0.93056 0.71994-0.45811 1.1924-0.75876 0.49495-0.31495 0.49495-0.31495 1.9348-1.2312 2.7796-3.033 0.86723-1.8162 0.62389-3.9371-0.22084-2.1352-1.5952-4.295-1.3744-2.1598-3.215-3.2643-1.8182-1.1188-3.8307-1.1025-2.0125 0.0163-3.9248 1.2332 0 0-0.51745 0.32927-0.49496 0.31496-1.2599 0.80171-0.74243 0.47243-1.5074 0.95919-0.74244 0.47243-1.2599 0.8017-0.51745 0.32928-0.51745 0.32928l-0.42949-0.67494zm-4.4321 2.8203 10.021 15.749-1.4624 0.93055-10.021-15.749zm7.5814 14.994 1.0451 1.6424-1.7998 1.1453-0.14316-0.22498t0.13499-0.0859q0.15748-0.10021 0.15748-0.10021 0.58495-0.37222 0.73222-1.0349 0.15546-0.69947-0.19427-1.2987zm-7.9312-12.464-0.0675 0.043q-0.37222-0.58495-1.0574-0.71791-0.69947-0.15545-1.2844 0.21677 0 0-0.13498 0.0859-0.13499 0.0859-0.13499 0.0859l-0.16566-0.21067 1.7998-1.1453z"/><path d="m683.05 552.09q1.4707-1.1495 3.1301-1.668 1.6639-0.55592 3.3201-0.42887 1.6772 0.11062 3.1759 0.90227 1.4823 0.77063 2.6318 2.2414 1.1495 1.4707 1.5557 3.1163 0.38976 1.6246 0.092 3.2788-0.27677 1.6378-1.2017 3.1392-0.92037 1.464-2.3911 2.6135-1.4707 1.1495-3.1136 1.689-1.6593 0.51848-3.3366 0.40786-1.6562-0.12704-3.1385-0.89768-1.4987-0.79164-2.6482-2.2624-1.1495-1.4707-1.5393-3.0953-0.40619-1.6456-0.12941-3.2834 0.29778-1.6543 1.2181-3.1182 0.90394-1.485 2.3747-2.6345zm9.8202 12.564q1.5548-1.2152 2.2242-2.9569 0.66945-1.7417 0.35383-3.6611t-1.695-3.6843q-1.3958-1.7859-3.1658-2.5348-1.7864-0.76991-3.6382-0.54098-1.8518 0.22892-3.4066 1.4441-1.5338 1.1988-2.2032 2.9405-0.66945 1.7417-0.35382 3.6611 0.29919 1.8984 1.695 3.6843 1.3794 1.7649 3.1658 2.5348 1.7864 0.76992 3.6382 0.54099 1.8518-0.22892 3.3856-1.4277z"/><path d="m703.19 534.15 1.3744 1.0831 4.0227 13.186t0.16044 0.47464q0.17965 0.45616 0.46947 1.0654 0.27133 0.58997 0.58259 1.0676l-0.19222 0.18483-1.4336-0.95224zm-1.1539 21.346 1.2384 1.2879-1.9991 1.9222-0.18483-0.19223t0.13456-0.12938q0.15377-0.14786 0.15377-0.14786 0.49978-0.48056 0.58775-1.1201 0.1072-0.65799-0.33418-1.2324zm0.85391-0.26616q0.25802 0.30681 0.67056 0.42806 0.39406 0.10202 0.83543-0.28538l0.26911-0.25877 0.16635 0.173-1.0957 1.0535-0.96111-0.99956zm-9.8685-11.302 0.19223-0.18483 1.4749 0.76445 9.0663 11.814-1.0572 1.0166zm0.19223-0.18483 14.895 5.0258 1.4986 2.4434-14.726-5.0036zm10.149-9.759 13.079 10.139-1.4609 1.4047-10.546-8.4673-1.2443-2.9099zm11.264 9.4055 0.38444-0.36966q0.57593 0.44507 1.2376 0.36374 0.66169-0.0813 1.1422-0.54341 0 0 0.13456-0.12938 0.15377-0.14786 0.15377-0.14786l0.18483 0.19222-1.9991 1.9222zm-0.74153 1.2679 0.13456-0.12938 0.96112 0.99955-1.1149 1.072-0.16635-0.173 0.28834-0.27724q0.42362-0.44434 0.29941-0.84283-0.10498-0.41697-0.40219-0.64912z"/><path d="m709.42 527.79 11.936 10.656-1.1188 1.2532-11.936-10.656zm9.5968 10.713 1.2731 1.1366-1.5096 1.6909-0.19893-0.17759t0.12432-0.13925 0.12432-0.13925q0.49726-0.55699 0.51641-1.2191 0.0369-0.682-0.38297-1.0926zm1.0123-1.1339 0.0533-0.0597q0.4554 0.37081 1.1111 0.27701 0.67347-0.1137 1.1707-0.67069 0 0 0.10656-0.11936 0.12432-0.13925 0.12432-0.13925l0.21668 0.15771-1.5096 1.6909zm-9.3893-8.3825-1.2731-1.1366 1.5096-1.6909 0.18117 0.19749t-0.12432 0.13925q-0.10655 0.11935-0.10655 0.11935-0.49727 0.55699-0.53418 1.239-0.039 0.64435 0.40073 1.0727zm-1.0123 1.1339-0.0533 0.0597q-0.47529-0.38858-1.1289-0.25712-0.65572 0.0938-1.153 0.6508-0.0178 0.0199-0.14208 0.15914-0.10655 0.11936-0.10655 0.11936l-0.19893-0.1776 1.5096-1.6909z"/><path d="m712.73 523.56 20.05-3.1626 2.4196 1.5356-20.114 3.1136zm11.694 8.984 1.3074 1.012-1.2242 1.5816-0.21088-0.16322t0.13058-0.1687q0.1469-0.18979 0.1469-0.18979 0.37541-0.48503 0.32024-1.0673-0.0552-0.58224-0.5191-0.94133zm0.68553-0.8857q0.46394 0.35909 1.0414 0.26652 0.59379-0.11367 0.95288-0.5776 0 0 0.13058-0.1687 0.1469-0.1898 0.1469-0.1898l0.21088 0.16323-1.2242 1.5816-1.3075-1.012zm-12.38-8.0983 1.8828 7e-3 11.804 9.103-0.73449 0.94895-10.333-7.9978q-1.0755-0.83243-1.9374-1.3309-0.84554-0.51956-0.84554-0.51956zm9.522-11.649 10.249 7.9326q0.67482 0.52231 1.3401 0.9698 0.64419 0.43116 1.0775 0.69911 0.42855 0.23053 0.42855 0.23053l-0.1469 0.18979-1.8358 0.0628-11.83-9.1567zm1.2585 1.0752-1.3074-1.012 1.2242-1.5816 0.21088 0.16322t-0.1469 0.18979q-0.13057 0.16871-0.13057 0.16871-0.35909 0.46393-0.32025 1.0673 0.0552 0.58224 0.5191 0.94132zm-0.6692 0.8646q-0.48026-0.338-1.0577-0.24542-0.57748 0.0926-0.95288 0.57759 0 0-0.1469 0.1898-0.13058 0.1687-0.13058 0.1687l-0.21088-0.16322 1.2242-1.5816 1.3074 1.012z"/><path d="m726.14 506 13.307 8.8833-0.93274 1.3973-13.307-8.8833zm11 9.2665 1.4195 0.94755-1.2585 1.8852-0.22179-0.14806t0.10364-0.15525 0.10364-0.15525q0.41456-0.62102 0.34099-1.2793-0.0588-0.68047-0.53188-1.0284zm0.84392-1.2642 0.0444-0.0665q0.50275 0.30355 1.1389 0.11903 0.65097-0.20669 1.0655-0.8277 0 0 0.0888-0.13308 0.10364-0.15525 0.10364-0.15525l0.23659 0.12587-1.2585 1.8852zm-10.469-6.9882-1.4195-0.94756 1.2585-1.8852 0.20699 0.17024t-0.10364 0.15525q-0.0888 0.13308-0.0888 0.13308-0.41456 0.62101-0.3558 1.3015 0.0514 0.64348 0.54669 1.0062zm-0.84392 1.2642-0.0444 0.0665q-0.52493-0.31835-1.1537-0.0969-0.63617 0.18451-1.0507 0.80553-0.0148 0.0222-0.11844 0.17743-0.0888 0.13307-0.0888 0.13307l-0.22179-0.14805 1.2585-1.8852z"/></g></g><g fill="none"><circle transform="rotate(154.03)" cx="-330.84" cy="-602.53" r="192.34" display="none" stroke="#ff0d00" stroke-width="4.0252"/><g stroke="#000" stroke-width="1.1339" aria-label="The Dead Ledger Society"><path d="m347.13 454.25 13.435 36.701 12.821-4.6936-0.36669-1.0017q-2.9309-0.0629-5.2394-0.5355-2.3485-0.4579-4.7128-1.4552-1.3937-0.58025-2.3682-1.1322-1.0145-0.53731-1.734-1.1372-0.71941-0.59993-1.1584-1.3025-0.47902-0.68792-0.8017-1.5694l-0.24934-0.68113 22.197-8.1257q1.843-0.6747 2.8125-0.75698 0.91473-0.10768 1.6155 0.3173 0.68614 0.38492 1.1544 1.1676 0.45362 0.74266 1.0696 2.4254l0.51335 1.4023 1.0017-0.36668-8.4044-22.958-1.0017 0.36669 0.51335 1.4023q0.6307 1.7229 0.77845 2.6229 0.13308 0.86-0.14237 1.5969-0.26079 0.777-1.0142 1.3254-0.80812 0.52302-2.6512 1.1977l-22.197 8.1257-0.27868-0.76126q-0.27868-0.76126-0.36776-1.5011-0.10374-0.77986 0.0476-1.6077 0.11125-0.81314 0.47363-1.8091 0.32232-0.98127 0.89183-2.2802 0.60957-1.3136 1.3834-2.551 0.75911-1.2775 1.617-2.4094 0.85784-1.1319 1.789-2.0634 0.87645-0.95695 1.7608-1.6442l-0.36669-1.0017zm3.8138 2.1024 1.3494 3.6861q-0.21392 0.53267-0.35165 0.90114t-0.20999 0.66754q-0.12699 0.27367-0.15919 0.55807-0.0723 0.29906-0.16992 0.65287l-2.1414-5.8497zm0.7212-0.26401 3.4056-1.2467q-0.70151 0.93834-1.2134 1.8982-0.55198 0.97448-1.1362 2.2334zm11.218 32.878-1.6828 0.61603-1.6574-4.5275q0.52193 0.30873 1.0292 0.57738 0.4926 0.2286 1.2989 0.56952zm-0.0708-2.4276q1.295 0.43464 2.1522 0.66609 0.84247 0.19139 1.7651 0.35344l-3.1252 1.144zm17.005-25.535q0.42213-0.33627 0.61853-0.54447 0.19639-0.20821 0.50512-0.73015l2.9921 8.1736q-0.57667-0.33413-0.87574-0.40639-0.31374-0.11232-0.9226-0.16205zm1.5082 6.3541q-0.68507 0.11448-0.9802 0.17708t-0.97626 0.31195l-2.1121-5.7696 0.4808-0.17601q0.60099-0.22001 0.84139-0.30801t0.54626-0.24541zm-2.6777 0.75304-1.8831 0.68937-2.1121-5.7696 1.8831-0.68937zm-2.6043 0.95338-1.8831 0.68937-2.1121-5.7696 1.8831-0.68937zm-2.6444 0.96805-1.8831 0.68936-2.1121-5.7696 1.8831-0.68936zm-2.6043 0.95338-1.8831 0.68936-2.1121-5.7696 1.8831-0.68936zm-2.6043 0.95337-1.8831 0.68937-2.1121-5.7696 1.8831-0.68937zm-2.6043 0.95338-1.8831 0.68937-2.1121-5.7696 1.8831-0.68937zm-2.6043 0.95338-1.9232 0.70404-2.1121-5.7696 1.9232-0.70403zm-2.6444 0.96805-1.8831 0.68936-2.1121-5.7696 1.8831-0.68936zm-2.6043 0.95338-1.4023 0.51335-2.1121-5.7696 1.4023-0.51335z"/><path d="m357.35 430.6-6.4674 0.8873q-1.3527 0.18557-2.2155 0.17475-0.86862-0.0531-1.3551-0.46008-0.52877-0.40119-0.77157-1.2292-0.29086-0.86448-0.48224-2.2594l-0.0348-0.25362-0.97222 0.13338 2.6561 19.36 0.97223-0.13339-0.17398-1.2681q-0.19138-1.3949-0.13828-2.2635 5e-3 -0.90509 0.40621-1.4339 0.35891-0.52297 1.1869-0.76577 0.82222-0.28507 2.1749-0.47064l15.344-2.1052q1.3527-0.18558 2.2213-0.13249 0.86281 0.0108 1.3916 0.41202 0.4865 0.40698 0.77737 1.2715 0.2428 0.82802 0.43417 2.223l0.17398 1.2681 0.97223-0.13338-2.6561-19.36-0.97222 0.13338 0.0348 0.25363q0.19138 1.3949 0.18635 2.3-0.0531 0.86861-0.41201 1.3916-0.40118 0.52877-1.2234 0.81384-0.82802 0.2428-2.1807 0.42838l-7.8624 1.0787-1.5658-11.413 7.8624-1.0787q1.3527-0.18558 2.2213-0.13248 0.86281 0.0108 1.3916 0.41201 0.4865 0.40698 0.77157 1.2292 0.2428 0.82802 0.43418 2.223l0.0406 0.2959 0.97223-0.13339-2.6561-19.36-0.97223 0.13338 0.17978 1.3104q0.19137 1.3949 0.18055 2.2578-0.0531 0.86861-0.41201 1.3916-0.40119 0.52877-1.2234 0.81384-0.82801 0.2428-2.1807 0.42838l-15.344 2.1052q-1.3527 0.18558-2.2155 0.17475-0.86861-0.0531-1.3551-0.46008-0.52877-0.40119-0.77157-1.2292-0.28507-0.82222-0.47645-2.2172l-0.17978-1.3104-0.97222 0.13339 2.6561 19.36 0.97223-0.13338-0.0406-0.2959q-0.19137-1.3949-0.13828-2.2635 0.0108-0.86282 0.41201-1.3916 0.35892-0.52297 1.1869-0.76577 0.82221-0.28506 2.1749-0.47064l6.4674-0.8873zm-7.7095 9.4126q-0.69541 0.26767-1.0468 0.53122t-0.66808 0.78072l-0.95689-6.9747q0.51137 0.27437 0.90921 0.34899 0.35556 0.0804 1.0435 0.0722zm0.0476-5.3037 2.029-0.27836 0.69012 5.0302-0.92996 0.12759q-0.21135 0.029-0.42271 0.058-0.25362 0.0348-0.67053 0.13506zm2.7899-0.38275 1.9867-0.27257 0.69012 5.0302-1.9867 0.27257zm2.7476-0.37696 1.9867-0.27257 0.69011 5.0302-1.9867 0.27257zm2.7476-0.37695 1.9867-0.27257 0.69012 5.0302-1.9867 0.27257zm2.7476-0.37696 1.9867-0.27257 0.69012 5.0302-1.9867 0.27257zm2.7899-0.38275 1.9867-0.27257 0.69012 5.0302-1.9867 0.27257zm2.7476-0.37696 1.9867-0.27257 0.69592 5.0725q-0.34397 4e-3 -0.55532 0.0331-0.25363 0.0348-0.54952 0.0754l-0.88769 0.12179zm2.7418-0.41922q0.66473-0.17733 1.0278-0.35634 0.32077-0.17321 0.73936-0.57517l0.95688 6.9747q-0.44423-0.41279-0.85366-0.57195t-1.1512-0.22965zm-22.178-12.547q-0.6954 0.26767-1.0468 0.53122t-0.66809 0.78072l-0.95688-6.9747q0.51137 0.27437 0.915 0.39126 0.35557 0.0804 1.0435 0.0722zm0.0476-5.3037 2.029-0.27836 0.69012 5.0302-0.92995 0.12758q-0.2959 0.0406-0.50725 0.0696-0.21136 0.029-0.58599 0.12346zm2.7899-0.38275 1.9867-0.27257 0.69012 5.0302-1.9867 0.27257zm2.7476-0.37696 1.9867-0.27256 0.69012 5.0302-1.9867 0.27257zm2.7476-0.37695 1.9867-0.27257 0.69012 5.0302-1.9867 0.27257zm2.7476-0.37696 1.9867-0.27256 0.69011 5.0302-1.9867 0.27257zm2.7899-0.38275 1.9867-0.27257 0.69012 5.0302-1.9867 0.27257zm2.7476-0.37696 1.9867-0.27256 0.69592 5.0725q-0.34397 4e-3 -0.51305 0.0273-0.21135 0.029-0.59179 0.0812l-0.88768 0.12178zm2.7476-0.37695q0.66473-0.17733 1.0278-0.35634 0.31497-0.21547 0.73355-0.61743l0.95689 6.9747q-0.44423-0.41279-0.85367-0.57195-0.40943-0.15916-1.1512-0.22965z"/><path d="m344.46 366.49-2.182 32.268 0.9791 0.0662 0.0864-1.2771q0.095-1.4048 0.32285-2.2447 0.18816-0.88532 0.68809-1.3219 0.45736-0.43948 1.3174-0.50961 0.86291-0.11271 2.2251-0.0206l15.453 1.045q1.3622 0.0921 2.2021 0.31997 0.84275 0.18529 1.2794 0.68521 0.39403 0.49706 0.50385 1.4025 0.0701 0.86003-0.0249 2.2648l-0.0864 1.2771 0.9791 0.0662 2.208-32.651-9.5356-0.64482-0.0633 0.93653q1.571 1.4319 2.9205 2.9772 1.3098 1.4998 2.4349 3.2009 1.3575 2.059 1.912 3.9781 0.51476 1.8737 0.35355 4.2576l-0.20151 2.9799-12.132-0.82043 0.0633-0.93653q0.0892-1.3196 0.53858-2.2728 0.40964-0.99864 1.3813-2.0876 1.4377-1.6561 3.1129-2.3981l0.0691-1.0217-10.046-0.67937-0.0691 1.0217q4.3339 2.9444 4.0345 7.3717l-0.0633 0.93653-10.855-0.73406 0.26771-3.959q0.072-1.0642 0.25438-1.8644 0.14271-0.84563 0.49251-1.5917 0.30723-0.74898 0.82444-1.441 0.47463-0.6949 1.1679-1.4605 1.4745-1.5681 3.1503-2.9515 1.6361-1.4289 3.4282-2.6334l0.0605-0.89396zm2.6622 3.0025-0.2159 3.1927q-0.69323 0.76564-1.1167 1.3357-0.466 0.56719-0.94063 1.2621l0.40014-5.9172zm0.76626 0.0518 2.3413 0.15833q-0.81231 0.6293-1.3577 1.1056-0.5425 0.43372-1.1362 0.99226zm19.48 0.93244 1.8731 0.12666-0.46347 6.8537q-0.2801-0.91698-0.61717-1.624-0.37963-0.7099-1.0371-1.7379zm-0.94472 2.5875q-0.54704-0.76398-1.0204-1.3519-0.47053-0.63052-1.2275-1.4515l2.4265 0.16408zm-9.9495 4.8438 1.7879 0.1209q-0.49993 0.4366-1.0085 1.0009-0.50856 0.5643-0.9435 1.3046zm-0.92458 2.2895q-0.49007-0.97395-0.75927-1.4198-0.30889-0.49129-0.82775-1.0396l1.7454 0.11803zm-9.6194 6.9188-0.35408 5.236q-0.7352 0.12134-1.1327 0.30827-0.39752 0.18694-0.81231 0.6293l0.42604-6.3003zm0.76625 0.0518 2.0433 0.13817-0.34256 5.0658-0.93653-0.0633q-0.21285-0.0144-0.42569-0.0288-0.25542-0.0173-0.68399-3e-3zm2.8096 0.18999 2.0008 0.1353-0.34256 5.0658-2.0008-0.1353zm2.767 0.18711 2.0008 0.1353-0.34257 5.0658-2.0008-0.1353zm2.767 0.18712 2.0008 0.1353-0.34256 5.0658-2.0008-0.13529zm2.767 0.18711 2.0008 0.1353-0.34257 5.0658-2.0008-0.1353zm2.8096 0.19 2.0008 0.13529-0.34256 5.0658-2.0008-0.1353zm2.767 0.18711 2.0008 0.1353-0.34544 5.1083q-0.33768-0.0656-0.55053-0.08-0.25541-0.0173-0.5534-0.0374l-0.89396-0.0605zm2.767 0.18712 1.8731 0.12666-0.42605 6.3003q-0.35146-0.49417-0.72019-0.73293-0.36873-0.23875-1.0809-0.45797z"/><path d="m375.71 350.85 8.151-21.687q1.291-3.4348 2.0123-6.4454 0.73636-3.0506 0.66776-4.8085-0.0533-2.1623-0.78587-4.2153-0.77249-2.068-2.0696-3.8318-1.282-1.8037-3.0538-3.1533-1.7568-1.3896-3.8336-2.1702-2.0369-0.76556-4.259-0.91703t-4.3448 0.2814-4.036 1.4002q-1.9133 0.96736-3.3876 2.4644-0.86956 0.85828-1.5794 1.7766t-1.3748 2.0814q-0.65002 1.1231-1.2853 2.5708t-1.3408 3.3248l-8.4362 22.446 0.99848 0.37528 0.52538-1.3979q0.64548-1.7174 1.1454-2.4411 0.47499-0.77867 1.1245-1.1727 0.70443-0.41895 1.6581-0.2884 0.92879 0.0756 2.766 0.76611l17.294 6.4998q1.8372 0.69051 2.6258 1.2604 0.76366 0.51492 1.0178 1.2941 0.26911 0.73928 0.11363 1.638-0.14047 0.85882-0.78594 2.5762l-0.52539 1.3979zm-16.142-37.7q-0.82425 0.37391-1.214 0.68324-0.41467 0.25437-0.91941 0.74837 0.66022-1.3928 1.37-2.3111 0.72481-0.95827 1.7541-1.7565zm2.1149-3.4441q0.64948-0.39402 1.199-0.6433t1.3987-0.56824l-1.4711 3.914q-0.70416 0.0544-1.1936 0.14392-0.47445 0.0496-1.0888 0.22891zm3.5267-1.5005q0.59936-0.13938 1.0888-0.2289 0.44952-0.10453 1.2636-0.20879l-1.8314 4.8725q-0.60418-0.0903-1.0486-0.12063-0.42941-0.0702-1.0486-0.12064zm3.2064-0.52694q0.60927-0.0445 1.0537-0.0142 0.45943-0.01 1.0936 8.2e-4l-2.0865 5.5515q-0.58917-0.13027-0.96363-0.22544-0.4144-0.11017-1.0036-0.24045zm2.9413 0.0571q0.65913 0.0654 1.0486 0.12064 0.34954 0.0402 0.97864 0.1855l-2.2517 5.9908q-0.69397-0.21525-1.0534-0.35035t-0.85373-0.27529zm2.7762 0.49646q0.45434 0.12518 0.69398 0.21525 0.23963 0.0901 0.47926 0.18013l0.7189 0.2702-2.2967 6.1106q-0.3045-0.16003-0.5042-0.23508-0.19969-0.0751-0.43933-0.16513l-0.91859-0.34525zm2.581 1.0157q0.52912 0.29003 0.9135 0.48008 0.34444 0.17504 0.85855 0.50501l-2.2216 5.911q-0.56906-0.30505-0.84864-0.41012-0.31951-0.12009-0.96844-0.45516zm2.4558 1.47q0.48409 0.40985 0.82344 0.71971 0.31441 0.25492 0.78349 0.70471l-2.0265 5.3918q-0.61891-0.41495-0.92341-0.57497-0.3045-0.16003-0.83363-0.45006zm2.1907 2.0541q0.43906 0.52967 0.73337 0.95935 0.30932 0.38974 0.69343 0.94434l-1.7113 4.553q-0.48409-0.40985-0.83844-0.67978-0.3943-0.28494-0.82853-0.58489zm1.9205 2.773q0.37901 0.68942 0.65322 1.2939 0.23426 0.58944 0.50337 1.3287l-1.2609 3.3549q-0.34417-0.53958-0.6685-0.88938-0.34926-0.40476-0.81834-0.85455zm1.4852 3.9312q0.24873 1.2786 0.13801 2.4221-0.0708 1.1585-0.51146 2.8161-0.15412-0.92396-0.3136-1.3485-0.11955-0.40958-0.39375-1.014zm-30.633 8.1319-2.3267 6.1905q-0.64921 0.0295-0.92396 0.15412-0.31469 0.10962-0.8792 0.39884l2.732-7.2689zm0.7189 0.2702 1.8771 0.70552-2.1616 5.7512q-0.59908-0.22516-0.93361-0.30531-0.33452-0.0802-1.0186-0.20052zm2.596 0.97572 1.9171 0.72054-2.1616 5.7512-1.9171-0.72053zm2.636 0.99074 1.8771 0.70552-2.1616 5.7512-1.8771-0.70553zm2.596 0.97572 1.8771 0.70552-2.1616 5.7512-1.8771-0.70552zm2.596 0.97572 1.8771 0.70552-2.1616 5.7512-1.8771-0.70552zm2.596 0.97572 1.8771 0.70552-2.1616 5.7512-1.8771-0.70552zm2.636 0.99073 1.8771 0.70552-2.1616 5.7512-1.8771-0.70552zm2.596 0.97572 1.8771 0.70552-2.1616 5.7512-1.8771-0.70552zm2.596 0.97572 1.8771 0.70553-2.2366 5.9509q-0.55405-0.34498-0.83362-0.45006-0.3045-0.16003-0.96845-0.45516zm2.596 0.97573 1.3979 0.52538-2.732 7.2689q-0.21925-0.62938-0.39884-0.8792-0.16458-0.28976-0.59372-0.72454zm2.6438-2.7895-26.959-10.132 1.291-3.4348q0.57043-1.5177 1.0406-2.5261 0.48518-1.0483 0.97009-1.7321 0.44496-0.6988 0.95962-1.0979 0.47471-0.41413 1.1341-0.71327 2.128-0.93224 5.179-0.56042 3.026 0.31686 7.7388 2.0882 3.1152 1.1709 5.4663 2.5559 2.3261 1.3301 3.7432 2.7743 1.2475 1.2893 1.6809 2.6829 0.44842 1.3536 0.15248 3.1112-0.0402 0.34953-0.1603 0.66904-0.0651 0.29458-0.20533 0.78886-0.12519 0.45434-0.38038 1.1333-0.25518 0.67896-0.63046 1.6774z"/><path d="m386.05 265.56-17.451 27.229 0.82621 0.52951 0.69067-1.0777q0.75974-1.1854 1.3639-1.8118 0.59124-0.6853 1.2396-0.8272 0.61247-0.16493 1.4 0.18775 0.81054 0.31676 1.9601 1.0535l13.04 8.3571q1.1495 0.73671 1.7759 1.3408 0.64938 0.56821 0.79128 1.2166 0.10598 0.62537-0.2338 1.4718-0.35268 0.78752-1.1124 1.973l-0.69067 1.0777 0.82622 0.52952 17.658-27.553-8.0466-5.157-0.50649 0.79029q0.68728 2.0115 1.1259 4.0156 0.42571 1.9452 0.59261 3.9779 0.19826 2.4582-0.23996 4.4072-0.45112 1.89-1.7404 3.9017l-1.6116 2.5146-10.238-6.5614 0.50649-0.79029q0.71369-1.1136 1.5665-1.7326 0.83992-0.67797 2.2159-1.1644 2.0575-0.75913 3.883-0.60274l0.55253-0.86214-8.4777-5.4332-0.55253 0.86214q2.3804 4.6676-0.0139 8.4035l-0.50649 0.79029-9.1602-5.8707 2.1411-3.3408q0.57555-0.89806 1.1207-1.5115 0.53229-0.6724 1.1982-1.1578 0.62994-0.50847 1.4165-0.86591 0.75061-0.38046 1.7269-0.71765 2.0474-0.66426 4.1823-1.0697 2.122-0.46441 4.2726-0.65712l0.48347-0.75437zm0.88733 3.9134-1.7267 2.6942q-0.97626 0.33719-1.6219 0.6329-0.68154 0.27269-1.4321 0.65315l3.2001-4.9932zm0.6466 0.4144 1.9757 1.2662q-1.015 0.16036-1.7223 0.31516-0.68431 0.11888-1.4736 0.3225zm16.624 10.198 1.5806 1.013-3.7066 5.7835q0.19608-0.93855 0.24114-1.7205 9e-3 -0.80498-0.072-2.0226zm-2.074 1.8128q-0.11154-0.93299-0.24332-1.6762-0.10875-0.77918-0.37688-1.8632l2.0476 1.3123zm-11.052-0.54602 1.5087 0.96694q-0.64839 0.1419-1.3658 0.39157t-1.4552 0.68907zm-1.9128 1.5613q0.0395-1.0896 0.0183-1.61-0.0341-0.57933-0.22486-1.3097l1.4728 0.94391zm-11.762 1.4315-2.8317 4.4185q-0.70277-0.24769-1.1412-0.27528-0.43842-0.0276-1.015 0.16036l3.4073-5.3165zm0.64661 0.4144 1.7243 1.1051-2.7396 4.2748-0.79029-0.50649q-0.17961-0.11511-0.35923-0.23022-0.21553-0.13814-0.59778-0.33244zm2.3709 1.5195 1.6884 1.082-2.7396 4.2748-1.6884-1.082zm2.335 1.4964 1.6884 1.082-2.7396 4.2748-1.6884-1.082zm2.335 1.4964 1.6884 1.082-2.7396 4.2748-1.6884-1.082zm2.335 1.4964 1.6884 1.082-2.7396 4.2748-1.6884-1.082zm2.3709 1.5195 1.6884 1.082-2.7396 4.2748-1.6884-1.082zm2.335 1.4964 1.6884 1.082-2.7627 4.3107q-0.26436-0.2201-0.44397-0.33521-0.21554-0.13814-0.46699-0.29929l-0.75437-0.48347zm2.335 1.4964 1.5806 1.013-3.4073 5.3165q-0.0701-0.60235-0.27825-0.98916-0.20819-0.38682-0.72678-0.92188z"/><path d="m415.06 261.02 3.4153 0.8279q0.91656 0.26483 1.293 0.61192 0.59595 0.54956 0.47819 1.3696-0.0888 0.78866-0.84086 1.6042l-1.3884 1.5056 0.72142 0.66526 13.913-15.087-0.72142-0.66526-0.40494 0.43913q-0.69418 0.75278-1.3403 1.2017-0.61718 0.41752-1.3961 0.56985-0.77889 0.15232-1.7484 0.0708-0.96953-0.0815-2.3419-0.41846l-24.146-5.7252-0.66526 0.72142 6.7028 20.865q1.145 3.6676 1.0931 6.1154-0.0543 2.3876-1.351 3.9196l0.72142 0.66526 9.6318-10.445-0.72142-0.66526q-0.90154 0.85177-1.3981 1.2644-0.49904 0.35236-1.0319 0.6155-1.0971 0.49735-2.4984 0.19177-1.4327-0.3345-2.4364-1.2601-0.28229-0.26032-0.44157-0.46523-0.19064-0.23384-0.38616-0.58825zm-4.8192 12.968q0.39799 0.13486 0.58131 0.18782 0.18331 0.053 0.42691 0.10349l-2.7767 3.0112q0.0746-0.39555 0.12265-0.69944 0.0456-0.36419 0.084-0.90924zm-1.5769 0.57718q-0.0582-0.69212-0.13317-1.0514-0.046-0.39066-0.16209-1.02 0.19064 0.23384 0.31855 0.40982 0.15683 0.14463 0.28229 0.26032 0.0941 0.0868 0.21956 0.20247 0.0941 0.0868 0.37151 0.22651zm11.733-12.976 4.2229-4.5794 2.0743 0.51988-5.4088 5.8655q-0.0729-1.0539-0.7002-1.6323zm-0.70922-0.3638-2.1973-0.57529 4.0205-4.3599 2.2262 0.54392zm-3.0511-0.78227-2.2262-0.54392 3.9916-4.3285 2.2552 0.51255zm-3.1114-0.77982-2.2262-0.54392 3.9626-4.2972 2.2552 0.51256zm-3.0801-0.75089-2.2262-0.54393 3.9626-4.2972 2.2262 0.54392zm-3.0801-0.7509-2.2552-0.51256 3.9626-4.2972 2.2262 0.54393zm-3.109-0.71953-0.61023-0.15645-0.51689-1.5794 2.8346-3.0739 2.2552 0.51256zm-1.3735-2.6015-1.0048-3.1901 3.232 0.77494zm11.022 5.9851-6.6236 7.1828-3.2582-9.6209z"/><path d="m432.8 246.11q0.8154 1.0951 1.1882 1.8815 0.40696 0.76088 0.31081 1.4176-0.12163 0.62252-0.73836 1.2945-0.608 0.6123-1.7373 1.4532l-1.0267 0.76444 0.58607 0.7871 15.571-11.594q2.5324-1.8856 4.4074-3.6541 1.8495-1.8027 2.6133-3.063 0.92695-1.5413 1.3428-3.3404 0.39036-1.8333 0.29436-3.6769-0.096-1.8435-0.72134-3.6121-0.62534-1.7686-1.7465-3.2744-1.0957-1.4716-2.6108-2.5776-1.4809-1.1316-3.1853-1.7775-1.6702-0.6714-3.4788-0.81421-1.7998-0.20251-3.5335 0.18401-0.97347 0.19289-1.8792 0.54815-0.93125 0.32104-1.923 0.84667-0.95747 0.50015-2.1035 1.2471-1.1118 0.72148-2.4465 1.7153l-16.119 12.002 0.58607 0.78711 1.0267-0.76445q1.1293-0.84088 1.9157-1.2136 0.79511-0.43244 1.4518-0.33629 0.63125 0.0619 1.2436 0.66992 0.64651 0.58251 1.4619 1.6776zm5.2023-26.162q-0.85259-0.2163-1.4584-0.244-0.63125-0.0619-1.3484 0.0465 2.2746-1.3745 4.8943-1.3569zm3.2649-1.4735q0.68222 0.13036 1.2363 0.30295 0.56281 0.11289 1.3215 0.34592l-3.08 2.2933q-0.60429-0.45436-0.99599-0.69466-0.39171-0.24029-0.91156-0.43836zm3.3929 0.98457q0.57081 0.26652 0.99673 0.48133 0.42593 0.21482 0.95378 0.56652l-3.7644 2.803q-0.42518-0.42814-0.74844-0.7194-0.28904-0.31674-0.72296-0.68518zm2.6145 1.511q0.52785 0.3517 0.87659 0.67718 0.32325 0.29126 0.69748 0.65096l-4.1751 3.1087q-0.30577-0.41066-0.56933-0.69318-0.22933-0.30799-0.73096-0.8388zm2.1354 1.8677q0.31451 0.35096 0.49288 0.59052 0.15289 0.20533 0.2803 0.37644 0.0765 0.10266 0.17837 0.23955 0.10193 0.13689 0.24607 0.40192l-4.2777 3.1852q-0.19511-0.33348-0.32252-0.50459-0.15289-0.20533-0.33126-0.44488l-0.50963-0.68444zm1.6221 2.2499q0.28829 0.53007 0.47466 0.92325 0.19512 0.33348 0.38075 0.94l-4.0724 3.0323q-0.23733-0.46163-0.46667-0.76963-0.19511-0.33347-0.55985-0.96621zm1.1342 2.6664q0.20237 0.70045 0.29482 1.1104 0.0924 0.40992 0.14993 1.0587l-3.5249 2.6246q-0.16089-0.35896-0.25407-0.55556-0.0845-0.25629-0.15215-0.41866-0.0932-0.19659-0.22059-0.3677-0.0932-0.19659-0.2286-0.52133zm0.49275 3.0908q0.0145 0.73392-0.0132 1.3397-0.0277 0.60577-0.12385 1.2625l-2.6351 1.9621q-0.10044-0.56355-0.19289-0.97347-0.0924-0.40993-0.35451-1.1191zm-0.39703 3.7533q-0.38014 1.347-1.0238 2.4114-0.63496 1.0047-1.7563 1.9993 0.29274-0.74993 0.38014-1.347 0.12163-0.62252 0.10711-1.3564zm-25.176-6.5215-4.2093 3.1342q-0.57007-0.47985-0.97051-0.66044-0.40045-0.18059-1.0062-0.20829l5.0648-3.7712zm0.45866 0.616 1.2231 1.6426-4.0724 3.0323-0.56059-0.75289q-0.1274-0.17111-0.25481-0.34222-0.15289-0.20533-0.44193-0.52207zm1.6818 2.2586 1.1976 1.6084-4.0724 3.0323-1.1976-1.6084zm1.6563 2.2244 1.1976 1.6084-4.0724 3.0323-1.1976-1.6084zm1.6563 2.2244 1.1976 1.6084-4.0724 3.0323-1.1976-1.6084zm1.6563 2.2244 1.1976 1.6084-4.0724 3.0323-1.1976-1.6084zm1.6818 2.2586 1.1976 1.6084-4.0724 3.0323-1.1976-1.6084zm1.6563 2.2244 1.1976 1.6084-4.1066 3.0578q-0.16963-0.29926-0.29703-0.47037-0.15289-0.20533-0.33126-0.44488l-0.53511-0.71866zm1.6563 2.2244 1.1212 1.5058-5.0648 3.7712q0.14711-0.58829 0.0889-1.0237-0.0582-0.4354-0.35452-1.1191zm3.5509-0.30341-14.346-19.267 2.4298-1.8092q1.0951-0.8154 1.899-1.3076 0.77837-0.52637 1.3936-0.7717 0.624-0.30504 1.1788-0.34578 0.52933-0.075 1.1264 0.0124 1.9105 0.2797 3.893 1.942 1.957 1.6281 4.4542 4.9819 2.4462 3.2853 3.512 6.0026 1.0403 2.6831 0.59898 4.448-0.14711 0.5883-0.40489 1.0994-0.28326 0.47688-0.72888 1.0215-0.47111 0.51037-1.2327 1.1307-0.7274 0.59481-1.8567 1.4357z"/><path d="m477.53 225.41 36.508-13.587-3.9437-10.597-0.9597 0.35716q-0.66477 2.2505-1.6941 4.5002-1.0442 2.2096-2.3879 4.3486-1.5343 2.4831-3.4257 4.0065-1.8366 1.5485-4.4757 2.5307l-3.3989 1.265-8.2445-22.153q-0.68456-1.8394-0.79714-2.7536-0.0875-0.96901 0.33375-1.6721 0.39612-0.6482 1.1363-1.1058 0.76532-0.51245 2.4848-1.1524l1.3996-0.52086-0.37204-0.99968-22.953 8.5422 0.37204 0.99968 1.3996-0.52087q1.7194-0.63992 2.5936-0.73762 0.89926-0.15257 1.6228 0.0789 0.77839 0.25662 1.3057 1.0619 0.55244 0.75044 1.237 2.5898l6.4438 17.314q0.68456 1.8394 0.77204 2.8084 0.11258 0.91414-0.30865 1.6172-0.38123 0.68819-1.1614 1.1607-0.74022 0.45758-2.4597 1.0975l-1.3996 0.52087zm-2.8187-29.226q-0.44827-0.47053-0.72262-0.59606-0.28922-0.16551-0.8779-0.40169l8.1574-3.0359q-0.1813 0.61378-0.21197 0.89835-0.0307 0.28457-0.0269 0.78396zm6.5059-1.6018q0.0642 0.29479 0.15347 0.53472 0.0744 0.19993 0.3274 0.87972l0.17859 0.47984-5.7582 2.143q-0.22323-0.59981-0.38227-0.90483-0.15905-0.30501-0.51712-0.90016zm0.92733 2.614 0.71433 1.9194-5.7582 2.143-0.71433-1.9194zm0.9822 2.6392 0.69945 1.8794-5.7582 2.143-0.69945-1.8794zm0.96732 2.5992 0.69944 1.8794-5.7582 2.143-0.69944-1.8794zm0.96732 2.5992 0.69944 1.8794-5.7582 2.143-0.69944-1.8794zm0.96732 2.5992 0.69944 1.8794-5.7582 2.143-0.69944-1.8794zm0.9822 2.6392 0.69944 1.8794-5.7582 2.143-0.69944-1.8794zm0.96732 2.5992 0.69944 1.8794-5.7582 2.143-0.69944-1.8794zm0.96732 2.5992 0.69944 1.8794-5.9581 2.2174q-0.10327-0.64446-0.20744-0.92437-0.0791-0.33478-0.29207-1.0294zm0.96731 2.5992 0.52087 1.3996-7.2777 2.7085q0.33103-0.57845 0.40169-0.8779 0.11065-0.31434 0.1571-0.92346zm19.985-8.0751 0.72921 1.9594-7.9974 2.9764q0.87597-0.82679 1.4469-1.4945 0.58584-0.62776 1.3827-1.7893zm-3.7468 0.57495q0.84245-1.4062 1.3241-2.3138 0.46678-0.94766 0.96423-2.1799l1.1906 3.199z"/><path d="m541.68 178.77-31.917 5.2234 0.15849 0.96845 1.2632-0.20673q1.3895-0.2274 2.2592-0.1968 0.90491-0.0184 1.4439 0.36898 0.53208 0.34527 0.79622 1.1667 0.30625 0.81457 0.52676 2.162l2.5014 15.285q0.22052 1.3474 0.18991 2.2171 0.0115 0.8628-0.37587 1.4018-0.39426 0.49686-1.2509 0.81-0.82146 0.26414-2.211 0.49155l-1.2632 0.20673 0.15849 0.96845 32.296-5.2854-1.5436-9.4319-0.92635 0.1516q-1.0366 1.8558-2.2339 3.5217-1.1621 1.6169-2.5623 3.0999-1.6957 1.7907-3.4381 2.7676-1.7072 0.92791-4.0652 1.3138l-2.9474 0.48237-1.964-12 0.92635-0.1516q1.3053-0.21362 2.3358 7e-3 1.0657 0.17147 2.3473 0.86965 1.94 1.0228 3.044 2.485l1.0106-0.16538-1.6263-9.9372-1.0106 0.16539q-1.8802 4.8905-6.2592 5.6072l-0.92634 0.1516-1.7572-10.737 3.9159-0.64086q1.0527-0.17228 1.8734-0.17689 0.85591-0.0536 1.6621 0.1171 0.79926 0.1286 1.5909 0.47463 0.78472 0.30392 1.6881 0.80459 1.8627 1.0786 3.5914 2.3954 1.7639 1.2678 3.3448 2.7384l0.88424-0.14471zm-2.3173 3.2759-3.158 0.51683q-0.90339-0.50067-1.5549-0.78315-0.6584-0.3246-1.4431-0.62851l5.8528-0.95786zm0.12404 0.75792 0.37901 2.3159q-0.79775-0.64766-1.3857-1.0702-0.54586-0.42948-1.2249-0.88039zm3.5282 19.181 0.3032 1.8527-6.7792 1.1094q0.82911-0.48156 1.4408-0.97078 0.6048-0.53132 1.4561-1.4056zm-2.7346-0.33067q0.61934-0.70664 1.084-1.3015 0.5068-0.60175 1.1338-1.5258l0.39279 2.4001zm-6.9822-8.585 0.28942 1.7685q-0.53897-0.38737-1.2043-0.75407-0.6653-0.3667-1.4852-0.62162zm-2.4399-0.37892q0.83676-0.69898 1.2096-1.0626 0.40804-0.41265 0.82374-1.0427l0.28253 1.7264zm-8.9275-7.7911-5.1791 0.84759q-0.28558-0.68825-0.55813-1.0328t-0.79774-0.64766l6.2318-1.0199zm0.12404 0.75791 0.33077 2.0211-5.0107 0.82003-0.1516-0.92634q-0.0345-0.21054-0.0689-0.42107-0.0413-0.25264-0.15236-0.66681zm0.45481 2.779 0.32388 1.979-5.0107 0.82003-0.32388-1.979zm0.44792 2.7369 0.32387 1.979-5.0107 0.82003-0.32387-1.979zm0.44791 2.7369 0.32388 1.979-5.0107 0.82004-0.32388-1.979zm0.44792 2.7369 0.32388 1.979-5.0107 0.82003-0.32388-1.979zm0.45481 2.779 0.32387 1.979-5.0107 0.82003-0.32388-1.979zm0.44791 2.7369 0.32388 1.979-5.0528 0.82692q-0.013-0.34374-0.0475-0.55428-0.0414-0.25264-0.0896-0.54738l-0.14472-0.88424zm0.44792 2.7369 0.3032 1.8527-6.2318 1.0199q0.40115-0.45476 0.54966-0.86817 0.14852-0.41342 0.19979-1.1568z"/><path d="m554.33 198.92q-0.0417 1.3647-0.23833 2.2124-0.154 0.84903-0.63745 1.3038-0.48214 0.41214-1.3829 0.55537-0.85685 0.10188-2.2642 0.0589l-1.2794-0.0391-0.03 0.98088 19.404 0.59279q3.1559 0.0964 5.7238-0.12395 2.5692-0.26301 3.9509-0.77573 1.6841-0.63153 3.1279-1.7826 1.4451-1.1938 2.5156-2.6978 1.0704-1.504 1.6796-3.2782 0.60912-1.7742 0.66645-3.6507 0.056-1.8338-0.44367-3.6419-0.45704-1.8068-1.391-3.372-0.89133-1.564-2.2195-2.7998-1.2843-1.2771-2.8827-2.0516-0.88256-0.45382-1.813-0.73837-0.92911-0.32719-2.0327-0.53165-1.061-0.20316-2.423-0.33014-1.3194-0.12568-2.9827-0.17649l-20.087-0.61363-0.03 0.98087 1.2794 0.0391q1.4073 0.043 2.2551 0.23964 0.89167 0.1553 1.3464 0.63874 0.45609 0.4408 0.55798 1.2976 0.14453 0.85814 0.10284 2.2228zm20.334-17.264q-0.53356-0.69928-0.99095-1.0974-0.45609-0.4408-1.0854-0.80151 2.6363 0.33665 4.6778 1.9784zm3.4736 0.87448q0.45348 0.52609 0.78032 1.0056 0.37079 0.43819 0.82037 1.0922l-3.8382-0.11725q-0.19108-0.73151-0.34864-1.1632t-0.44176-0.90992zm2.0464 2.8798q0.28159 0.56352 0.4818 0.99651 0.2002 0.43298 0.3952 1.0366l-4.6912-0.14331q-0.067-0.59966-0.13932-1.0287-0.0296-0.42777-0.14062-0.98609zm1.1094 2.8085q0.19499 0.60357 0.26595 1.0753 0.0723 0.42907 0.14193 0.94344l-5.2029-0.15895q0.0156-0.51176-0.0153-0.89688 0.0117-0.38382-0.0514-1.1114zm0.51237 2.7903q0.0283 0.47042 0.0192 0.76894-8e-3 0.25588-0.0143 0.46912-4e-3 0.12794-9e-3 0.29853-5e-3 0.17058-0.057 0.46781l-5.3308-0.16286q0.0544-0.38251 0.0609-0.59575 8e-3 -0.25588 0.0169-0.55441l0.0261-0.85293zm-0.12733 2.7707q-0.10353 0.59445-0.20186 1.0183-0.0544 0.38252-0.28584 0.97306l-5.075-0.15504q0.10093-0.50915 0.11265-0.89297 0.0544-0.38252 0.16182-1.1049zm-0.76834 2.7938q-0.27672 0.67453-0.45904 1.0531-0.18231 0.37861-0.54042 0.9226l-4.3926-0.13419q0.097-0.38122 0.14618-0.59315 0.0931-0.25327 0.14097-0.42256 0.0492-0.21193 0.0557-0.42516 0.0492-0.21193 0.14488-0.5505zm-1.5347 2.7278q-0.44471 0.58402-0.84286 1.0414t-0.8816 0.91218l-3.2838-0.10032q0.27151-0.50395 0.45382-0.88256 0.18232-0.3786 0.4177-1.0971zm-2.6435 2.6939q-1.1349 0.81906-2.3007 1.253-1.1218 0.3926-2.6184 0.47494 0.69537-0.40563 1.1349-0.81907 0.48214-0.41213 0.92685-0.99616zm-15.672-20.755-5.2456-0.16025q-0.14844-0.73021-0.34994-1.1205-0.20151-0.39034-0.6589-0.78849l6.3117 0.19282zm-0.0235 0.76764-0.0625 2.047-5.075-0.15504 0.0287-0.93823q7e-3 -0.21323 0.013-0.42647 8e-3 -0.25588-0.0218-0.68365zm-0.086 2.8147-0.0612 2.0044-5.075-0.15504 0.0612-2.0044zm-0.0847 2.772-0.0612 2.0044-5.075-0.15503 0.0612-2.0044zm-0.0847 2.772-0.0612 2.0044-5.075-0.15503 0.0612-2.0044zm-0.0847 2.772-0.0612 2.0044-5.075-0.15504 0.0612-2.0044zm-0.086 2.8147-0.0612 2.0044-5.075-0.15504 0.0612-2.0044zm-0.0847 2.772-0.0612 2.0044-5.1176-0.15634q0.0531-0.33987 0.0596-0.55311 8e-3 -0.25588 0.0169-0.5544l0.0274-0.89559zm-0.0847 2.772-0.0573 1.8765-6.3117-0.19282q0.48084-0.36949 0.7058-0.7468 0.22496-0.3773 0.41769-1.0971zm2.9706 1.969 0.73349-24.01 3.0279 0.0925q1.3647 0.0417 2.3003 0.15565 0.93693 0.0713 1.5714 0.26144 0.67844 0.14878 1.1384 0.46164 0.46129 0.27021 0.87473 0.70971 1.323 1.4064 1.8432 3.9408 0.52149 2.4918 0.39381 6.6711-0.12507 4.0941-0.9787 6.8853-0.85232 2.7486-2.2948 3.8571-0.48084 0.36949-1.0004 0.60974-0.51828 0.1976-1.2058 0.34734-0.68626 0.1071-1.6684 0.11978-0.93953 0.014-2.3469-0.029z"/><path d="m622.58 186.79-0.78998-0.18198q-1.1063 0.62084-2.1679 0.85791-1.0105 0.20507-1.7589 0.0327-0.91471-0.21071-2.3734-1.2911-0.92451-0.73838-1.7306-1.2306-0.79651-0.53375-1.6313-0.9012-0.78367-0.39944-1.6792-0.69331-0.85398-0.28429-1.935-0.53331-3.3262-0.76622-6.1052-0.48691-2.7278 0.24731-5.177 1.5658-2.5515 1.3825-4.2583 3.6602-1.6557 2.2456-2.3166 5.1145-0.71834 3.1183-0.052 6.1178 0.70794 3.009 2.6884 5.4356 1.6414 1.9981 4.1428 3.4938 2.5014 1.4957 5.2456 2.1278 1.2058 0.27775 2.6577 0.43708 1.4935 0.16892 2.2482 0.12385 1.6342-0.0614 2.6895-0.081 1.0649-0.0612 1.7685-0.0743 0.74514-3e-3 1.2536 0.0699 0.50851 0.0733 1.049 0.19787 1.2889 0.29691 2.3669 0.93928 1.0876 0.60081 1.7754 1.416l0.62671-0.24969q0.0124-1.0042 0.19742-2.1875 0.1946-1.2249 0.64475-3.1791 0.431-1.871 0.81434-2.9649 0.43449-1.1259 0.99393-1.6538 0.56902-0.56946 1.3653-0.60495 0.84745-0.0675 2.0532 0.21026l1.871 0.431 0.22029-0.95629-19.874-4.5782-0.22029 0.95629 1.4552 0.33522q1.2473 0.28733 1.9574 0.62604 0.75167 0.34829 1.0525 0.943 0.34243 0.60429 0.26603 1.5062-0.0348 0.91144-0.35089 2.2835-0.81411 3.5341-2.3647 4.7532-1.5506 1.219-4.3778 0.56776-3.2431-0.74707-4.1332-3.5354-1.2935-3.8883 0.15273-10.167 0.72792-3.1599 1.8527-5.5716 1.1248-2.4117 2.5249-3.9281 2.0107-2.0763 5.0875-1.3675 4.1994 0.96736 6.6122 4.9383 1.024 1.637 1.7602 3.3828t1.095 3.2296l1.0778 0.0731zm-23.912-2.4435q1.6211-0.76496 3.2008-0.97025 1.6309-0.23729 3.3835-0.0525-0.94323 0.48327-1.5155 0.87685-0.57229 0.39357-1.2852 1.0175zm3.0707 1.4955q-0.3964 0.39031-0.75122 0.7902-0.31325 0.40947-0.70638 0.97567l-4.7399-1.0919q0.54987-0.48631 0.98785-0.86704 0.47955-0.37116 1.0934-0.75516zm-1.921 2.4472q-0.34198 0.5342-0.56249 0.92124-0.21094 0.34547-0.51134 0.88925l-5.1972-1.1972q0.35156-0.57577 0.60407-0.91166 0.29409-0.32631 0.7608-0.83178zm-1.371 2.5302q-0.27798 0.63651-0.39618 0.95956-0.1182 0.32304-0.34502 0.92756l-5.4883-1.2643q0.21725-0.56293 0.3866-0.91798 0.17894-0.39662 0.52091-0.93082zm-0.95518 2.6259q-0.14693 0.44778-0.18524 0.61409-0.0383 0.16631-0.15325 0.66524l-0.15324 0.66525-5.4467-1.2547q0.0542-0.42536 0.10209-0.63325 0.0575-0.24946 0.12451-0.54051 0.0287-0.12473 0.067-0.29104 0.0479-0.20789 0.15651-0.48936zm-0.62255 2.7026q-0.0862 0.3742-0.14367 0.62367-6e-3 0.21747-0.0542 0.42536 3e-3 0.17589-3e-3 0.39335-6e-3 0.21747-0.0414 0.55967l-5.0725-1.1685q-0.0738-0.62998-0.0708-1.0233 3e-3 -0.39336 0.022-1.0458zm-0.29951 2.8208q0.0226 0.66198 0.0196 1.0553-3e-3 0.39335 0.0707 1.0233l-4.4904-1.0344q-0.18895-0.70029-0.31064-1.1224t-0.19549-1.0521zm0.209 2.8941q0.0738 0.62998 0.14433 1.0841 0.12169 0.42209 0.32022 1.0808l-3.4094-0.78538q-0.46715-0.63302-0.74557-1.135-0.26885-0.54355-0.59212-1.231zm0.74951 3.0186q0.24011 0.66829 0.44496 1.1095 0.24642 0.45082 0.71684 1.2597-1.433-0.81174-2.3767-1.467-0.89251-0.68722-1.6956-1.5728zm21.929-15.746-1.7463-0.40226-0.20158-0.26536q0.45735 0.10536 1.0362 0.0636 0.57882-0.0418 1.0841-0.14434zm-0.13082 0.75798-0.2808 1.5991q-0.24011-0.66829-0.42253-1.0168-0.17285-0.39009-0.41927-0.84091zm-6.5256 11.982q0.0668-0.86028-0.0677-1.4167-0.13453-0.5564-0.47695-1.1607l6.9851 1.6091q-0.49545 0.6302-0.72554 1.0588-0.23008 0.42863-0.47606 1.1163zm5.0152 1.9872-0.45015 1.9542-5.1141-1.1781q0.099-0.23988 0.14693-0.44777 0.0479-0.20789 0.0766-0.33263 0.0479-0.20788 0.11494-0.49893 0.067-0.29104 0.11166-0.67482zm-0.62255 2.7026-0.45016 1.9542-5.3635-1.2355q0.2684-0.59494 0.3866-0.91798 0.12777-0.36463 0.31302-0.97871zm-0.62256 2.7026-0.23944 1.0394q-0.64609-0.2364-1.0523-0.37375-0.36462-0.12778-0.82198-0.23314-0.95629-0.22028-2.0756-0.303-1.0778-0.0731-2.7215 0.0298 0.48913-0.41273 0.72249-0.66547 0.28451-0.28473 0.61691-0.77735z"/><path d="m662.62 202.84-29.663-12.887-0.39102 0.90006 1.174 0.51003q1.2914 0.56103 2.0061 1.0576 0.7708 0.47442 1.0142 1.0919 0.26046 0.57835 0.0379 1.412-0.18349 0.85067-0.72752 2.1029l-6.1713 14.205q-0.54403 1.2523-1.0406 1.9669-0.45742 0.73167-1.0749 0.97512-0.60048 0.20433-1.4903 4e-3 -0.83367-0.22261-2.1251-0.78364l-1.174-0.51003-0.39102 0.90007 30.015 13.04 3.8082-8.7659-0.86093-0.37402q-1.8762 0.99918-3.7847 1.7517-1.8524 0.73037-3.8325 1.2192-2.3952 0.58762-4.389 0.46572-1.9377-0.14404-4.1292-1.0961l-2.7393-1.1901 4.8452-11.153 0.86094 0.37402q1.2131 0.52703 1.9602 1.2702 0.80319 0.72109 1.5028 2.0019 1.0774 1.9102 1.2141 3.7372l0.9392 0.40802 4.0122-9.2355-0.9392-0.40802q-4.2284 3.0941-8.2982 1.326l-0.86094-0.37402 4.3352-9.979 3.6394 1.5811q0.97834 0.42502 1.6709 0.86544 0.74866 0.41828 1.3341 0.99823 0.60239 0.54081 1.0806 1.2603 0.49526 0.68035 0.98378 1.5904 0.98217 1.9153 1.7228 3.9583 0.79677 2.0208 1.3299 4.1132l0.8218 0.35702zm-3.7218 1.4999-2.935-1.2751q-0.48852-0.91001-0.88338-1.5002-0.37786-0.62935-0.87312-1.3097l5.4395 2.3631zm-0.30602 0.7044-0.93505 2.1523q-0.32012-0.97641-0.58571-1.65-0.22645-0.65661-0.55331-1.4034zm-7.4172 18.037-0.74803 1.7219-6.3005-2.7371q0.95781 0.0439 1.737-0.0362 0.79614-0.11932 1.9852-0.39356zm-2.1202-1.7584q0.90328-0.25886 1.616-0.50744 0.75187-0.23159 1.7793-0.66911l-0.96905 2.2306zm-1.223-10.998-0.71404 1.6436q-0.24346-0.61747-0.60431-1.286-0.36086-0.66848-0.91225-1.3267zm-1.8463-1.6394q1.082-0.13472 1.5923-0.23864 0.56648-0.12606 1.2571-0.43078l-0.69704 1.6045zm-3.2884-11.384-4.8134-2.0911q0.13248-0.73327 0.0898-1.1705-0.0427-0.4372-0.32012-0.97641l5.7917 2.5161zm-0.30602 0.7044-0.81604 1.8784-4.6569-2.0231 0.37402-0.86094q0.085-0.19566 0.17001-0.39133 0.102-0.2348 0.23288-0.64313zm-1.1221 2.5828-0.79904 1.8393-4.6569-2.0231 0.79904-1.8393zm-1.105 2.5437-0.79904 1.8393-4.6569-2.0231 0.79904-1.8393zm-1.1051 2.5437-0.79904 1.8393-4.6569-2.0231 0.79904-1.8393zm-1.1051 2.5437-0.79904 1.8393-4.6569-2.0231 0.79904-1.8393zm-1.122 2.5828-0.79904 1.8393-4.6569-2.0231 0.79904-1.8393zm-1.1051 2.5437-0.79904 1.8393-4.696-2.0401q0.17514-0.29607 0.26015-0.49173 0.102-0.2348 0.22101-0.50874l0.35701-0.8218zm-1.1051 2.5437-0.74803 1.7219-5.7917-2.5161q0.58348-0.16519 0.93215-0.43238 0.34868-0.2672 0.79422-0.86446z"/><path d="m683.48 232.39q3.1367 1.4558 5.5663 0.9891 2.4648-0.44276 4.0447-2.7738 1.149-1.6953 1.1163-3.6245 0.0266-1.9406-1.1092-3.535-0.46819-0.6781-0.86692-1.1545-0.39873-0.4764-1.0219-1.0018t-1.6121-1.1957q-0.9297-0.68161-2.4838-1.7348l-17.872-12.112-0.55055 0.81235 1.0596 0.71811q1.1656 0.78992 1.7762 1.4099 0.6699 0.60863 0.79511 1.2604 0.14915 0.61651-0.22363 1.3947-0.33746 0.80214-1.1034 1.9324l-8.6891 12.821q-0.76598 1.1302-1.386 1.7409-0.5847 0.63458-1.2365 0.75979-0.62788 0.0899-1.4653-0.27151-0.77821-0.37277-1.9438-1.1627l-1.0596-0.71811-0.55055 0.81236 16.176 10.963 0.55055-0.81235-0.21192-0.14362q-1.1656-0.78992-1.8354-1.3986-0.61064-0.62002-0.75979-1.2365-0.12521-0.65182 0.21225-1.454 0.37278-0.7782 1.1388-1.9084l3.9256-5.7924 1.66 1.125-1.2894 13.919 10.278 6.9656 0.55055-0.81235q-1.5894-1.0772-2.1953-2.3125-0.57064-1.2114-0.40276-3.0562zm3.4777-10.683q-0.0534-0.75778-0.16723-1.3503-0.0785-0.56863-0.40426-1.3048 1.2362 0.83779 2.0007 1.459 0.82373 0.6098 1.3398 1.2173t0.79511 1.2605q0.30298 0.61767 0.49766 1.4712zm4.196 3.7715q-0.0286 0.65065-0.12671 1.0996-0.0628 0.47288-0.28055 1.0984l-4.4856-3.04q0.31235-0.61299 0.42183-1.0027 0.13341-0.42501 0.23267-1.0278zm-0.73216 2.9056-0.31118 0.45915q-0.33511 0.49448-0.95513 1.1051l-4.4856-3.04q0.40576-0.4466 0.59725-0.72915 0.25075-0.29394 0.63374-0.85906zm-1.9091 2.0564q-0.7248 0.38501-1.1875 0.53532-0.43873 0.115-1.2444 0.23904l-3.7792-2.5612q0.5698-0.23234 0.95045-0.48979 0.40458-0.29277 0.88098-0.69149zm-3.7457 0.81169q-0.43756-0.0388-0.87512-0.0777-0.41363-0.0742-0.92183-0.16086-0.47288-0.0628-1.0517-0.19735-0.57883-0.13459-1.3468-0.29427l-0.0377 0.28372-4.0264-2.7288 0.0377-0.28372q1.6031 0.82874 2.6662 1.0854 1.1224 0.24523 2.1297 0.0517zm-4.3108 0.42871-0.24204 2.2584-3.9911-2.7049 0.20672-2.2824zm-0.34364 3.1689-0.24204 2.2584-3.9558-2.6809 0.20672-2.2824zm-0.35503 3.1096-0.20672 2.2824-3.9205-2.657 0.20673-2.2824zm-0.31971 3.1336-0.24087 2.1046-3.8852-2.633 0.20555-2.1286zm-1.9808-25.825-4.3443-2.9442q0.26565-0.69618 0.30448-1.1337 0.0388-0.43756-0.13425-1.0188l5.2273 3.5427zm-0.43086 0.63575-1.149 1.6953-4.203-2.8485 0.52661-0.77703q0.11968-0.1766 0.23937-0.3532 0.14362-0.21192 0.34766-0.58905zm-1.5798 2.3311-1.125 1.66-4.203-2.8485 1.125-1.66zm-1.5559 2.2958-1.125 1.66-4.203-2.8485 1.125-1.66zm-1.5559 2.2958-1.125 1.66-4.203-2.8485 1.125-1.66zm-1.5559 2.2958-1.125 1.66-4.203-2.8485 1.125-1.66zm-1.5798 2.3311-1.125 1.66-4.203-2.8485 1.125-1.66zm-1.5559 2.2958-1.125 1.66-4.2384-2.8724q0.22682-0.25862 0.3465-0.43522 0.14362-0.21192 0.31118-0.45915l0.50267-0.74172zm-1.5206 2.3197q-0.31235 0.61299-0.42182 1.0027-0.0855 0.35436-0.0663 0.93437l-5.8277-3.9496q0.60395-0.0546 0.99597-0.25276 0.39203-0.19819 0.94024-0.70288zm8.289-6.9071 6.6066-9.7482 1.6954 1.149q1.3775 0.93354 2.0109 1.6721 0.66873 0.76246 1.0161 1.771 0.37011 1.127 0.0758 2.4739-0.27034 1.3115-1.156 2.6183-3.2554 4.8035-8.2708 1.4044z"/><path d="m742.54 268.9-0.45829-0.56222-6.7516-1.5974q-0.19068-4.0831-1.3527-7.2644-1.1289-3.2082-3.4742-6.0854-1.9949-2.4473-4.2946-3.9855-2.2997-1.5382-4.6373-2.1099-2.3375-0.57165-4.5928-0.16448-2.2283 0.44024-4.0472 1.9229-6.482 5.2838 0.27891 16.617l4.6421 7.7207q0.33822 0.54999 0.74509 1.3192 0.40688 0.76926 0.78068 1.5655 0.40687 0.76926 0.6998 1.4663 0.35295 0.70312 0.55028 1.1478 0.71703 1.8926 0.56169 3.1201-0.15534 1.2276-1.1806 2.0632-1.6205 1.3209-3.8282 0.36827-2.2078-0.95266-4.8227-4.1606-2.3184-2.8441-3.5196-5.9384-1.2012-3.0943-1.5241-7.0696-0.52059-5.9059 1.3233-11.207l-0.70091-0.85986-9.8553 8.0335 0.70091 0.85986 7.3005 1.8656q0.11424 1.5583 0.17567 2.444 0.0945 0.85875 0.20733 1.5374 0.45998 2.9278 1.7787 5.7611 1.3187 2.8333 3.3675 5.3467 2.0758 2.5465 4.2824 4.1056 2.2005 1.6191 4.358 2.1724 2.1844 0.58637 4.2926 0.13391 2.1082-0.45246 3.9602-1.9621 3.9355-3.208 3.3588-7.9672-0.24903-1.7236-1.2921-4.2862-1.01-2.5896-2.5871-5.2673l-4.022-6.96q-1.4154-2.4792-2.1961-4.0447-0.75372-1.5324-1.0578-2.7158-0.25624-1.0572-0.0323-2.0654 0.28402-1.0022 1.0447-1.6222 0.82679-0.67395 1.8656-0.75011 1.0719-0.10311 2.2089 0.34626 1.197 0.45549 2.432 1.4304 1.235 0.97491 2.3942 2.397 3.7202 4.5638 4.492 10.981 0.3313 2.7024 0.0267 5.0975-0.27761 2.4281-1.2497 5.4224l0.62003 0.76064zm-24.614-20.945q1.0119-0.10923 1.9123-0.0175 0.90044 0.0917 1.8365 0.42964-0.79261 0.0406-1.4174 0.21956-0.62474 0.17899-1.3879 0.52583zm0.26737 1.5435-0.19843 0.16175q-0.42993 0.35045-0.66754 0.59918-0.23761 0.24874-0.53275 0.76455l-1.7523-2.1496q0.54388-0.2782 0.95547-0.44857 0.43854-0.13729 1.0633-0.31627zm-1.7244 2.3414q-0.26568 0.82207-0.33292 1.4824-7e-3 0.66643 0.20733 1.5374l-3.5045-4.2993q0.21065-0.28181 0.37601-0.4166t0.36378-0.29654q0.16536-0.13479 0.33072-0.26957 0.16536-0.13479 0.48384-0.28431zm0.62702 5.1586q0.36769 0.85625 0.87017 1.8778 0.56251 1.0277 1.3676 2.3531l3.81 6.3622-11.888-14.584q0.15674-0.34795 0.24122-0.58195 0.11144-0.20093 0.18981-0.37491 0.11145-0.20093 0.22289-0.40186 0.17147-0.19482 0.41519-0.50359zm8.364 14.65q0.78067 1.5655 1.2734 2.9803 0.49275 1.4148 0.64978 2.5529l-16.633-20.405q-0.0945-0.85875-0.0664-1.4321 0.0611-0.60029 0.27289-1.4885zm2.0828 6.9445q-0.0133 0.72647-0.1345 1.3206-0.0611 0.60029-0.31458 1.3023l-12.859-15.775q-0.75121-1.2592-1.3198-2.2269-0.50859-0.96157-0.88239-1.7578-0.34073-0.82317-0.62754-1.5802-0.22679-0.75092-0.38743-1.5558zm-0.80786 3.4659q-0.32821 0.54277-0.57194 0.85153-0.1837 0.31488-0.63197 0.84542l-3.855-4.7292q-0.47191-1.3218-1.3813-3.1126-0.88239-1.7578-2.1005-3.7924l-1.2181-2.0346zm-1.7722 2.2153q-0.463 0.37741-0.82068 0.61392-0.35767 0.23651-0.86847 0.48775l-1.4018-1.7197q0.26568-0.82207 0.32681-1.4224 0.0881-0.56722-0.0125-1.3659zm-2.4192 1.4216q-1.2348 0.5111-2.1805 0.56641-0.91266 0.0284-1.9418-0.28873 0.89794-0.18149 1.4357-0.39966 0.57083-0.24512 1.0338-0.62253 0.0992-0.0809 0.20454-0.22178 0.16536-0.13479 0.3699-0.35656zm14.799-16.082-1.4557-1.7859 2.9109 0.59971zm-0.59528 0.48524-1.8189 1.4827q0.12117-0.59418 0.16396-1.0144 0.0428-0.4202 0.0795-0.78038 0.0636-0.3271 0.0672-0.66032 0.0367-0.36018 0.0525-0.81346zm-36.096-8.5585 2.3453 2.8772-4.5611-1.071zm0.59529-0.48524 3.0095-2.4532q-0.3207 1.3623-0.52745 2.7969-0.14673 1.4407-0.0828 2.5996z"/><path d="m755.93 296.13q-0.85938-1.6691-1.7912-3.0129-0.8744-1.3254-1.8603-2.4014t-2.103-1.9406q-1.0975-0.82664-2.403-1.4982-2.8996-1.5304-6.0868-1.569-3.1298-0.0202-5.9369 1.4251-2.6174 1.3477-4.3259 3.715-1.689 2.4053-2.262 5.5798-0.57307 3.1745 0.0366 6.3159 0.62919 3.1793 2.6019 7.0106 1.6992 3.3002 3.6136 5.4339 1.8765 2.1532 4.1428 3.3858 2.7272 1.4752 5.8949 1.4759 3.2252 0.0191 6.0702-1.4458 2.8071-1.4453 4.5156-3.8127 1.766-2.349 2.3413-5.3326 0.59485-2.9457-0.0182-6.3733-0.59351-3.3897-2.4295-6.9554zm-0.40958 7.3134q0.44956-0.71137 0.70945-1.3251 0.31736-0.59532 0.57386-1.4952 0.40079 1.6173 0.4166 2.9528 0.0537 1.3161-0.21552 2.7504zm1.1922 3.9932q-0.20242 0.63212-0.46344 1.1504-0.20356 0.53672-0.59565 1.2665l-2.0899-4.0589q0.84843-0.86876 1.4497-1.6583zm-1.527 3.1858q-0.37482 0.57691-0.6565 0.9619-0.28168 0.38498-0.67716 0.82856l-2.461-4.7796q0.41615-0.31025 0.75642-0.58143t0.83115-0.71589zm-1.8993 2.3696q-0.43342 0.46311-0.77369 0.73429-0.30234 0.25165-0.77482 0.63889l-2.6563-5.159q0.75755-0.48603 1.0036-0.66068 0.28394-0.19419 0.68168-0.44697zm-2.1922 1.8006q-0.34028 0.27119-0.56788 0.38838-0.18967 0.0976-0.41727 0.21484-0.1138 0.0586-0.30347 0.15625-0.18967 0.0977-0.47474 0.19645l-2.6953-5.2349 0.41727-0.21485 1.3656-0.70313zm-2.4852 1.2316q-0.5322 0.17804-0.9506 0.29748-0.39887 0.15739-1.0276 0.24116l-2.5391-4.9314q0.49427-0.15851 0.83567-0.33429 0.36094-0.13785 1.0253-0.43195zm-2.8161 0.68213q-0.6862 0.0654-1.1057 0.0894-0.41952 0.024-1.1068-6e-3l-2.2266-4.3244q0.57127-0.10217 0.95174-0.20209 0.4184-0.11945 1.0265-0.33655zm-3.1102 0.0177q-0.70686-0.068-1.2424-0.17611-0.49765-0.12769-1.2826-0.34739l-1.7188-3.3382q0.66779-8e-3 1.0678-0.0699 0.43793-0.0815 1.0667-0.16528zm-3.579-0.89268q-1.6872-0.66699-2.8812-1.5879-1.1366-0.90251-1.9708-2.0567 0.99644 0.35077 1.647 0.49573 0.70799 0.16336 1.6815 0.19zm8.6434-27.486q1.517 0.80259 2.6742 1.8384 1.2147 1.0542 2.3005 2.5107-1.1114-0.38758-1.7435-0.59-0.61259-0.16449-1.4539-0.3072zm0.84065 3.3104q-0.72639-0.1059-1.1654-0.11978-0.41953 0.024-1.1827 0.0331l-2.3242-4.5141q0.78386 0.1243 1.3585 0.30833 0.61258 0.16449 1.3412 0.46118zm-3.1872-0.0386q-0.5908 0.0642-1.0483 0.10782-0.43793 0.0815-1.0471 0.20321l-2.5977-5.0452q0.51493-0.0252 1.0873-0.032 0.62986 0.0116 1.1838 0.0623zm-2.8563 0.51087q-0.55174 0.1401-0.97014 0.25955-0.39887 0.15738-0.969 0.35495l-2.7149-5.2728q0.58967-0.15964 1.0081-0.27908 0.4184-0.11945 1.0092-0.18369zm-2.6415 0.92814-0.72074 0.3711-1.0622 0.54688-2.7149-5.2728q0.32187-0.21372 0.54947-0.33091 0.22761-0.11719 0.41728-0.21485l0.7966-0.41016zm-2.4266 1.3454q-0.49201 0.34931-0.85182 0.58256-0.30234 0.25165-0.79435 0.60095l-2.6172-5.0831q0.43341-0.46311 0.69782-0.69523 0.30234-0.25165 0.85068-0.67795zm-2.2692 1.7443q-0.45295 0.42518-0.77369 0.73429-0.32074 0.30912-0.71623 0.7527l-2.3438-4.552q0.31735-0.59532 0.5611-0.96077 0.28168-0.38498 0.71397-0.94349zm-2.0165 2.142q-0.41389 0.50105-0.69557 0.88603-0.22421 0.40338-0.5795 1.0182l-1.836-3.5658q0.16224-0.80339 0.34626-1.378 0.22196-0.59418 0.51865-1.3228zm-1.7235 2.711q-0.37256 0.76771-0.55659 1.3424-0.18402 0.57465-0.47733 1.5895-0.45374-1.2541-0.60626-2.8552-0.133-1.5632 0.0386-3.1872zm23.786-4.0408q0.89845 1.745 0.59351 3.3897-0.30493 1.6447-1.8294 3.4374-1.2612 1.4652-3.2097 2.9004-1.9106 1.4156-4.3004 2.6461-5.1969 2.6758-8.9002 2.567-3.6458-0.0904-5.1107-2.9354-0.93751-1.8208-0.70844-3.4265 0.28653-1.5872 1.8305-3.342 1.3554-1.5617 3.2086-2.9958 1.891-1.4536 3.9015-2.4887 2.0484-1.0547 4.2163-1.691 2.2058-0.65583 4.2839-0.814 4.4229-0.35767 6.0245 2.7529z"/><path d="m774.46 346.96-0.20925-0.6945q-1.2227-0.6565-1.8897-1.3913-0.62616-0.74712-0.94619-1.8093-0.17233-0.57194-0.18517-1.0582 0.028-0.49862 0.2066-1.5328 0.32469-1.8803 0.22462-3.5435-0.0469-1.6346-0.5885-3.4322-0.70161-2.3286-1.9914-4.3909-1.2489-2.0746-2.7626-3.401-2.6345-2.2364-6.0151-2.9557-3.3274-0.69077-6.6773 0.31856-2.8597 0.86163-4.9785 2.7032-2.1065 1.8824-3.3009 4.4258-1.1535 2.5311-1.3501 5.5759-0.19662 3.0448 0.76348 6.2314 0.87394 2.9005 2.4827 5.134 1.6496 2.2212 3.8376 3.5672 1.5909 0.99117 3.4348 1.6388 1.897 0.67614 3.4992 0.81726l0.17465-0.89929q-2.1909-0.32024-4.1248-1.1189-1.8808-0.77014-3.3984-1.9617-1.5176-1.1915-2.6474-2.7227-1.0889-1.5435-1.6182-3.3002-1.0463-3.4725 2.1342-6.0795 2.9723-2.4106 7.9563-3.9123 5.7602-1.7356 9.3736-1.131 3.6666 0.63315 4.5282 3.4928 0.71392 2.3694 0.14072 4.9039-0.53235 2.5222-2.246 4.8209-0.89769 1.1617-2.012 2.3441-1.0611 1.2109-2.4042 2.3732l0.3195 0.61671zm-9.5351-21.146q1.5993 1.1669 2.6144 2.4653 1.0559 1.2861 1.724 2.9118-1.0062-0.6772-1.6972-1.0483-0.67879-0.33021-1.5333-0.65204zm0.22475 3.4081q-0.62955-0.16681-1.0588-0.26029-0.41691-0.0526-1.2099-0.1702l-1.4032-4.6572q0.73588 0.22389 1.2429 0.42762 0.51931 0.24459 1.2104 0.61566zm-3.0902-0.4949q-0.63348-0.0319-0.98492-0.0152-0.35144 0.0168-1.1075 0.0218l-1.5509-5.1474q1.0789 0.0314 2.1909 0.32023zm-2.8647 0.10559q-0.60886 0.0498-0.98884 0.11969-0.37999 0.0699-1.0174 0.17286l-1.6125-5.3517q0.67826-0.11524 1.0706-0.14432 0.3923-0.0291 0.96031-0.0665zm-2.7662 0.43241q-0.46169 0.0945-0.7068 0.1684-0.24512 0.0738-0.44938 0.1354l-0.7762 0.23387-1.5879-5.27q0.35537-0.15164 0.60048-0.22549 0.24512-0.0738 0.49023-0.14771l0.81706-0.24618zm-2.6554 0.80008q-0.54732 0.25403-0.94354 0.41797-0.35536 0.15164-0.90268 0.40567l-1.514-5.0249q0.51039-0.37659 0.85345-0.56907 0.3839-0.2048 0.93122-0.45883zm-2.5732 1.2209q-0.53501 0.29488-0.91892 0.49967-0.33075 0.23334-0.84114 0.60993l-1.354-4.4938q0.43262-0.48683 0.7796-0.81419 0.34698-0.32735 0.84506-0.74479zm-2.4092 1.6171q-0.53893 0.42975-0.89822 0.71625-0.34698 0.32735-0.73874 0.80188l-1.0216-3.3908q0.64813-1.3984 1.3785-2.376zm-2.2369 2.1891q-0.5591 0.65863-0.86915 1.1085-0.29775 0.49077-0.75445 1.3414-0.0833-1.3117 0.0623-2.6033 0.19875-1.263 0.67507-2.788zm24.316 10.453-0.52929-1.7567 0.26082-0.61332q0.23387 0.7762 0.43867 1.1601 0.2171 0.42476 0.71625 0.89823zm-0.72304 0.26241-1.5686 0.56175q0.39176-0.47452 0.61619-0.76495 0.26527-0.30273 0.62011-0.89982z"/><path d="m756.09 363.33q-1.3505 0.20043-2.2197 0.15688-0.86288-1e-3 -1.396-0.3967-0.49094-0.40161-0.79129-1.2628-0.25188-0.8253-0.45857-2.218l-0.1879-1.2661-0.9707 0.14406 3.019 20.343 0.9707-0.14406-0.1879-1.2661q-0.20669-1.3928-0.21161-2.2978 0.0435-0.86915 0.3967-1.396 0.39535-0.53315 1.2144-0.82723 0.8253-0.25188 2.1758-0.45231l15.32-2.2736q1.3505-0.20043 2.2134-0.19908 0.86914 0.0435 1.3601 0.44516 0.53314 0.39536 0.78502 1.2207 0.30035 0.86124 0.50704 2.254l0.1879 1.2661 0.97071-0.14406-3.019-20.343-0.97071 0.14405 0.18791 1.2661q0.20669 1.3927 0.16314 2.2619 5e-3 0.90508-0.39044 1.4382-0.35314 0.52688-1.1784 0.77876-0.81904 0.29409-2.1696 0.49452zm17.821-1.6959q0.69242-0.27529 1.041-0.54268 0.34852-0.2674 0.65946-0.78802l1.0335 6.9637q-0.51435-0.26874-0.91298-0.33898-0.35643-0.0765-1.0442-0.0607zm0.0107 5.3039-2.0258 0.30064-0.74534-5.0223 0.9285-0.1378q0.21102-0.0313 0.42204-0.0626 0.25323-0.0376 0.66901-0.14242zm-2.7855 0.41338-1.9836 0.29438-0.74534-5.0223 1.9836-0.29438zm-2.7433 0.40712-1.9836 0.29438-0.74534-5.0223 1.9836-0.29438zm-2.7433 0.40712-1.9836 0.29438-0.74534-5.0223 1.9836-0.29438zm-2.7433 0.40712-1.9836 0.29438-0.74534-5.0223 1.9836-0.29438zm-2.7855 0.41338-1.9836 0.29438-0.74535-5.0223 1.9836-0.29438zm-2.7433 0.40712-1.9836 0.29438-0.75161-5.0645q0.3439-8e-3 0.55492-0.0392 0.25323-0.0376 0.54866-0.0814l0.88629-0.13153zm-2.737 0.44933q-0.66275 0.18462-1.0238 0.3676-0.31884 0.17672-0.73298 0.58326l-1.0335-6.9637q0.44874 0.40788 0.85989 0.56253 0.41116 0.15465 1.1537 0.21699z"/><path d="m779.58 413.12 0.10005-32.341-0.98133-3e-3 -4e-3 1.28q-4e-3 1.408-0.17766 2.2608-0.13077 0.8956-0.60155 1.3635-0.42812 0.46801-1.2818 0.59337-0.85385 0.16802-2.2192 0.1638l-15.488-0.0479q-1.3653-4e-3 -2.2181-0.17753-0.85293-0.13064-1.3208-0.60142-0.42521-0.47066-0.59311-1.3672-0.12536-0.85373-0.121-2.2617l4e-3 -1.28-0.98133-3e-3 -0.10124 32.725 9.5573 0.0296 3e-3 -0.93867q-1.6599-1.3278-3.1061-2.783-1.4036-1.4124-2.636-3.0375-1.4872-1.9673-2.1641-3.8467-0.63432-1.8366-0.62693-4.226l9e-3 -2.9866 12.16 0.0376-3e-3 0.93867q-4e-3 1.3227-0.39113 2.3028-0.3445 1.0229-1.2441 2.1722-1.3281 1.7452-2.952 2.5936l-3e-3 1.024 10.069 0.0311 3e-3 -1.024q-4.5145-2.6593-4.5007-7.0966l3e-3 -0.93866 10.88 0.0337-0.0123 3.968q-3e-3 1.0667-0.13381 1.8769-0.088 0.85307-0.38901 1.6201-0.25837 0.76721-0.72995 1.4911-0.42891 0.72401-1.0714 1.5327-1.3705 1.6598-2.9538 3.1482-1.5407 1.5312-3.2515 2.8486l-3e-3 0.89599zm-2.8499-2.8248 0.01-3.2q0.6425-0.80868 1.0284-1.4048 0.42851-0.59601 0.85742-1.32l-0.0183 5.9306zm-0.768-2e-3 -2.3466-7e-3q0.7701-0.68029 1.2837-1.1907 0.51345-0.46774 1.07-1.0634zm-19.5 0.32367-1.8773-6e-3 0.0213-6.8693q0.33856 0.89705 0.72045 1.5809 0.42455 0.68398 1.1468 1.6676zm0.77618-2.6429q0.59508 0.72718 1.1054 1.2834 0.51015 0.59892 1.3184 1.3694l-2.432-8e-3zm9.617-5.4743-1.792-6e-3q0.47079-0.46788 0.94197-1.0638 0.47117-0.59588 0.85755-1.3627zm0.77525-2.3443q0.55176 0.94038 0.84911 1.368 0.33988 0.47039 0.89296 0.98411l-1.7493-5e-3zm9.154-7.5237 0.0162-5.248q0.72586-0.16842 1.1105-0.38056 0.38465-0.21215 0.7701-0.68029l-0.0195 6.3146zm-0.76799-2e-3 -2.048-6e-3 0.0157-5.0773 0.93866 3e-3q0.21334 6.6e-4 0.42667 1e-3 0.256 7.9e-4 0.6828-0.0405zm-2.816-9e-3 -2.0053-6e-3 0.0157-5.0773 2.0053 6e-3zm-2.7733-9e-3 -2.0053-6e-3 0.0157-5.0773 2.0053 6e-3zm-2.7733-9e-3 -2.0053-6e-3 0.0157-5.0773 2.0053 6e-3zm-2.7733-9e-3 -2.0053-6e-3 0.0157-5.0773 2.0053 6e-3zm-2.816-9e-3 -2.0053-6e-3 0.0157-5.0773 2.0053 6e-3zm-2.7733-9e-3 -2.0053-6e-3 0.0158-5.12q0.3412 0.0437 0.55454 0.0444 0.256 7.9e-4 0.55466 2e-3l0.896 3e-3zm-2.7733-9e-3 -1.8773-6e-3 0.0195-6.3146q0.38254 0.47052 0.76588 0.68504t1.1081 0.38743z"/><path d="m773.13 452.07 5.879-32.28-11.334-2.0642-0.17584 0.96546q2.0299 1.2371 3.5254 2.5503 1.4879 1.3552 2.8154 3.1149 0.77058 1.0077 1.2359 1.7864 0.49968 0.82827 0.75515 1.5687 0.25546 0.74042 0.30104 1.4426 0.0456 0.7022-0.092 1.4578l-0.0994 0.54569-19.435-3.5396q-1.3432-0.24464-2.1522-0.56545-0.81658-0.27883-1.1942-0.82466-0.33566-0.53819-0.34302-1.4503 0.027-0.86246 0.27926-2.2477l0.22935-1.2593-0.96545-0.17584-3.6849 20.233 0.96546 0.17583 0.22935-1.2593q0.25228-1.3852 0.53876-2.2438 0.3208-0.80895 0.82466-1.1942 0.54584-0.37765 1.4159-0.39265 0.86246 0.027 2.2057 0.27161l19.435 3.5397-0.11467 0.62964q-0.12232 0.67162-0.39726 1.2287-0.2406 0.60671-0.68344 1.1332-0.40087 0.53415-1.1109 1.0987-0.66801 0.57224-1.6185 1.2665-2.0841 1.4419-4.3359 2.3762t-4.057 1.0826l-0.17584 0.96545zm-2.3002-3.3246 0.48929-2.6865q0.84356-0.58363 1.3054-0.97656 0.46188-0.39294 0.9467-0.9118l-0.89447 4.9112zm-0.75557-0.13761-2.3507-0.42812q0.79769-0.33177 1.3855-0.70177 0.62214-0.32038 1.3092-0.75904zm5.9466-28.364 1.847 0.33638-0.68805 3.7779q-0.25936-0.48092-0.60267-0.97713-0.34331-0.49622-0.91555-1.1642zm-1.0002 1.2056q-0.58753-0.58406-0.95377-0.95434-0.37389-0.32831-0.85842-0.76351l2.0568 0.37461zm-21.966 11.786q-0.72888-0.046-1.0876 0.0188-0.36639 0.10674-0.88928 0.35846l1.2538-6.8841q0.29369 0.53055 0.63325 0.80923 0.33956 0.27869 1.0226 0.57656zm1.6653-4.8576q0.32817 0.10314 0.49607 0.13372 0.20989 0.0382 0.58767 0.10703l0.8815 0.16054-0.90211 4.9532-1.9729-0.35931zm2.7208 0.5389 1.9729 0.35932-0.90211 4.9532-1.9729-0.35932zm2.7704 0.50458 1.9729 0.35931-0.90211 4.9532-1.9729-0.35931zm2.7284 0.49693 1.9729 0.35931-0.90211 4.9532-1.9729-0.35931zm2.7285 0.49692 1.9729 0.35932-0.90212 4.9532-1.9729-0.35932zm2.7284 0.49693 1.9729 0.35932-0.90212 4.9532-1.9729-0.35932zm2.7284 0.49693 2.0149 0.36696-0.90212 4.9532-2.0149-0.36696zm2.7704 0.50457 1.847 0.33638-0.90211 4.9532-1.847-0.33638z"/><path d="m752.33 472.25 10.597-2.9538q1.1719-0.34038 1.7722-0.11862 1.3608 0.50265 0.32594 3.3043l-0.50265 1.3608 0.92055 0.34003 7.1701-19.411-0.92054-0.34003-0.32524 0.88052q-0.51743 1.4008-1.5022 2.2197-0.99952 0.85888-2.6203 1.3063l-14.882 3.9637-4.2425-1.5671q-1.2808-0.47308-2.0221-0.92885-0.75612-0.41575-1.0338-1.0186-0.23762-0.5881-0.0872-1.4877 0.1756-0.84482 0.66347-2.1656l0.44351-1.2007-0.92054-0.34002-7.1406 19.331 0.92054 0.34003 0.44351-1.2007q0.48787-1.3208 0.9184-2.1169 0.45577-0.74134 1.0186-1.0338 0.60288-0.27764 1.4625-0.14206 0.84482 0.17561 2.1256 0.64869l6.0436 2.2324 3.7124 5.4649q2.8918 4.1156 3.7701 7.0326 0.91836 2.9318 0.12616 5.3228l0.92055 0.34003 5.0265-13.608-0.92054-0.34002-0.2809 0.76044q-0.65048 1.761-1.9406 2.4216-1.2501 0.67535-2.811 0.0988-1.681-0.62091-3.0847-2.7314zm7.5933 8.6268q0.68906-0.0184 1.0579-0.15504 0.3941-0.0819 1.1466-0.39518l-1.6854 4.5627q-0.31333-0.75252-0.5257-1.2858-0.22716-0.49327-0.58485-1.1257zm-1.1048 0.77451q-0.23149-0.35841-0.34723-0.53762t-0.42728-0.56719q0.42981 0.0678 0.5899 0.12693 0.1601 0.0591 0.50985 0.0974zm-7.2381-12.544-1.8811-0.69484 1.7593-4.7628 0.76045 0.28089 1.4163-0.38652zm-2.6416-0.97573-1.8811-0.69484 1.7593-4.7628 1.8811 0.69484zm-2.6015-0.96095-1.8811-0.69484 1.7741-4.8028q0.3054 0.1583 0.4655 0.21743 0.20011 0.0739 0.56033 0.20698l0.84049 0.31046zm-2.6015-0.96094q-0.66995-0.1565-1.0745-0.16948-0.37932 0.0418-0.93785 0.19939l2.4393-6.6039q0.19759 0.57331 0.48388 0.90649 0.2863 0.33317 0.90756 0.74459zm10.797-2.8798 2.3838-0.66596-2.0549 5.5633-2.369 0.62594zm3.2964-0.92016 2.369-0.62594-2.0402 5.5232-2.3838 0.66597zm3.2816-0.88014 2.3838-0.66597-2.0549 5.5633-2.369 0.62594zm3.2964-0.92016 2.409-0.61116-2.0697 5.6033-2.3942 0.57113zm3.3216-0.86536q0.70817-0.19326 1.3258-0.51093 0.65768-0.30287 1.1005-0.63965l-3.0159 8.1648q-0.41862-0.83689-1.019-1.0586-0.08-0.0296-0.24015-0.0887-0.12007-0.0444-0.29494-0.0635z"/></g><ellipse transform="matrix(-.90262 .43043 -.44533 -.89537 0 0)" cx="-325.85" cy="-599.87" rx="172.38" ry="170.15" display="none" stroke="#000" stroke-width="1.3461"/></g><g><g transform="matrix(2.421 .23845 -.23845 2.421 397.13 20.317)" fill="none" stroke="#000" stroke-width=".77681"><path d="m82.395 75.195-3.2984 60.879h6.436z"/><path d="m96.484 76.599-15.112 59.066 6.3123 1.2556z"/><path d="m110.03 80.724-26.345 54.983 5.9461 2.4629z"/><path d="m122.51 87.412-36.565 48.787 5.3513 3.5756z"/><path d="m133.44 96.407-45.38 40.716 4.5509 4.5509z"/><path d="m142.41 107.36-52.452 31.08 3.5756 5.3513z"/><path d="m149.07 119.86-57.507 20.25 2.4629 5.9461z"/><path d="m153.17 133.41-60.353 8.6418 1.2556 6.3123z"/><path d="m154.54 147.5-60.879-3.2984-6e-6 6.436z"/><path d="m153.14 161.59-59.066-15.112-1.2556 6.3123z"/><path d="m149.01 175.14-54.983-26.345-2.463 5.9461z"/><path d="m142.32 187.61-48.786-36.565-3.5756 5.3513z"/><path d="m133.33 198.55-40.716-45.38-4.5509 4.5509z"/><path d="m122.37 207.52-31.08-52.452-5.3513 3.5756z"/><path d="m109.88 214.18-20.25-57.507-5.9461 2.4629z"/><path d="m96.325 218.27-8.6418-60.353-6.3123 1.2556z"/><path d="m82.233 219.65 3.2984-60.879h-6.436z"/><path d="m68.144 218.24 15.112-59.066-6.3123-1.2556z"/><path d="m54.599 214.12 26.345-54.983-5.9461-2.463z"/><path d="m42.12 207.43 36.565-48.786-5.3513-3.5756z"/><path d="m31.185 198.44 45.38-40.716-4.5509-4.5509z"/><path d="m22.215 187.48 52.452-31.08-3.5756-5.3513z"/><path d="m15.555 174.99 57.507-20.25-2.4629-5.9461z"/><path d="m11.46 161.43 60.353-8.6418-1.2556-6.3123z"/><path d="m10.088 147.34 60.879 3.2984 1.1e-5 -6.436z"/><path d="m11.491 133.25 59.066 15.112 1.2556-6.3123z"/><path d="m15.617 119.71 54.983 26.345 2.463-5.9461z"/><path d="m22.305 107.23 48.786 36.565 3.5757-5.3513z"/><path d="m31.3 96.293 40.716 45.38 4.5509-4.5509z"/><path d="m42.254 87.323 31.08 52.452 5.3513-3.5756z"/><path d="m54.749 80.662 20.25 57.507 5.9461-2.4629z"/><path d="m68.302 76.567 8.6418 60.353 6.3123-1.2556z"/></g><g transform="matrix(2.4327 0 0 2.4327 361.01 38.218)" fill="none" stroke="#000" stroke-width=".77681"><path d="m82.395 75.195-3.2984 60.879h6.436z"/><path d="m96.484 76.599-15.112 59.066 6.3123 1.2556z"/><path d="m110.03 80.724-26.345 54.983 5.9461 2.4629z"/><path d="m122.51 87.412-36.565 48.787 5.3513 3.5756z"/><path d="m133.44 96.407-45.38 40.716 4.5509 4.5509z"/><path d="m142.41 107.36-52.452 31.08 3.5756 5.3513z"/><path d="m149.07 119.86-57.507 20.25 2.4629 5.9461z"/><path d="m153.17 133.41-60.353 8.6418 1.2556 6.3123z"/><path d="m154.54 147.5-60.879-3.2984-6e-6 6.436z"/><path d="m153.14 161.59-59.066-15.112-1.2556 6.3123z"/><path d="m149.01 175.14-54.983-26.345-2.463 5.9461z"/><path d="m142.32 187.61-48.786-36.565-3.5756 5.3513z"/><path d="m133.33 198.55-40.716-45.38-4.5509 4.5509z"/><path d="m122.37 207.52-31.08-52.452-5.3513 3.5756z"/><path d="m109.88 214.18-20.25-57.507-5.9461 2.4629z"/><path d="m96.325 218.27-8.6418-60.353-6.3123 1.2556z"/><path d="m82.233 219.65 3.2984-60.879h-6.436z"/><path d="m68.144 218.24 15.112-59.066-6.3123-1.2556z"/><path d="m54.599 214.12 26.345-54.983-5.9461-2.463z"/><path d="m42.12 207.43 36.565-48.786-5.3513-3.5756z"/><path d="m31.185 198.44 45.38-40.716-4.5509-4.5509z"/><path d="m22.215 187.48 52.452-31.08-3.5756-5.3513z"/><path d="m15.555 174.99 57.507-20.25-2.4629-5.9461z"/><path d="m11.46 161.43 60.353-8.6418-1.2556-6.3123z"/><path d="m10.088 147.34 60.879 3.2984 1.1e-5 -6.436z"/><path d="m11.491 133.25 59.066 15.112 1.2556-6.3123z"/><path d="m15.617 119.71 54.983 26.345 2.463-5.9461z"/><path d="m22.305 107.23 48.786 36.565 3.5757-5.3513z"/><path d="m31.3 96.293 40.716 45.38 4.5509-4.5509z"/><path d="m42.254 87.323 31.08 52.452 5.3513-3.5756z"/><path d="m54.749 80.662 20.25 57.507 5.9461-2.4629z"/><path d="m68.302 76.567 8.6418 60.353 6.3123-1.2556z"/></g><path transform="matrix(2.4327 0 0 2.4327 305.83 35.593)" d="m54.97 181.91h100.06l-50.055-86.698z" fill="#fff" stroke="#000" stroke-width="1.3983"/><g transform="matrix(1.7718 0 0 1.7718 471.59 300.19)" stroke-width="2.4"><g><circle cx="50.609" cy="54.868" r="20.497" stroke="#000" stroke-width="5.4527"/><g transform="matrix(1.5064 0 0 1.5064 -73.388 -137.38)" fill="#fff" stroke="#fff" stroke-linecap="round" stroke-width=".4379"><path d="m82.33 113.51-0.64449 11.895h1.2575z"/><path d="m85.083 113.78-2.9528 11.541 1.2334 0.24534z"/><path d="m87.729 114.59-5.1476 10.743 1.1618 0.48124z"/><path d="m90.167 115.89-7.1446 9.5326 1.0456 0.69865z"/><path d="m92.304 117.65-8.867 7.9556 0.88922 0.88923z"/><path d="m94.057 119.79-10.249 6.0728 0.69866 1.0456z"/><path d="m95.358 122.23-11.237 3.9567 0.48124 1.1618z"/><path d="m96.158 124.88-11.793 1.6886 0.24533 1.2334z"/><path d="m96.426 127.64-11.895-0.6445-1e-6 1.2576z"/><path d="m96.152 130.39-11.541-2.9528-0.24534 1.2334z"/><path d="m95.346 133.04-10.743-5.1476-0.48124 1.1618z"/><path d="m94.039 135.47-9.5326-7.1446-0.69866 1.0456z"/><path d="m92.282 137.61-7.9556-8.867-0.88922 0.88922z"/><path d="m90.141 139.36-6.0728-10.249-1.0456 0.69866z"/><path d="m87.7 140.66-3.9567-11.237-1.1618 0.48125z"/><path d="m85.052 141.46-1.6886-11.793-1.2334 0.24533z"/><path d="m82.298 141.73 0.64449-11.895h-1.2575z"/><path d="m79.545 141.46 2.9528-11.541-1.2334-0.24533z"/><path d="m76.899 140.65 5.1476-10.743-1.1618-0.48124z"/><path d="m74.46 139.35 7.1446-9.5326-1.0456-0.69866z"/><path d="m72.324 137.59 8.867-7.9556-0.88922-0.88923z"/><path d="m70.571 135.45 10.249-6.0728-0.69866-1.0456z"/><path d="m69.27 133.01 11.237-3.9567-0.48124-1.1618z"/><path d="m68.47 130.36 11.793-1.6886-0.24533-1.2334z"/><path d="m68.201 127.6 11.895 0.64449 2e-6 -1.2576z"/><path d="m68.476 124.85 11.541 2.9528 0.24534-1.2334z"/><path d="m69.282 122.2 10.743 5.1476 0.48125-1.1618z"/><path d="m70.589 119.77 9.5326 7.1446 0.69866-1.0456z"/><path d="m72.346 117.63 7.9556 8.867 0.88922-0.88922z"/><path d="m74.487 115.88 6.0728 10.249 1.0456-0.69865z"/><path d="m76.928 114.58 3.9567 11.236 1.1618-0.48124z"/><path d="m79.576 113.78 1.6886 11.793 1.2334-0.24533z"/></g><circle cx="50.609" cy="54.868" r="7.9114" stroke="#000" stroke-width="2.0777"/></g><circle cx="55.642" cy="48.464" r="4.76" fill="#fff"/><path d="m91.344 53.545a46.659 30.023 0 0 0-0.3793-0.46628 46.659 30.023 0 0 0-1.5029-1.5971 46.659 30.023 0 0 0-1.6544-1.5341 46.659 30.023 0 0 0-1.7996-1.4643 46.659 30.023 0 0 0-1.9373-1.3901 46.659 30.023 0 0 0-2.0681-1.3097 46.659 30.023 0 0 0-2.1905-1.2243 46.659 30.023 0 0 0-2.3044-1.1345 46.659 30.023 0 0 0-2.4093-1.0398 46.659 30.023 0 0 0-2.5057-0.9419 46.659 30.023 0 0 0-2.5915-0.83967 46.659 30.023 0 0 0-2.6673-0.73432 46.659 30.023 0 0 0-2.7335-0.62648 46.659 30.023 0 0 0-2.7886-0.51552 46.659 30.023 0 0 0-2.8331-0.40332 46.659 30.023 0 0 0-2.8665-0.28924 46.659 30.023 0 0 0-2.8887-0.17391 46.659 30.023 0 0 0-2.9004-0.05792 46.659 30.023 0 0 0-2.9004 0.05792 46.659 30.023 0 0 0-2.8887 0.17391 46.659 30.023 0 0 0-2.867 0.28987 46.659 30.023 0 0 0-2.8331 0.40332 46.659 30.023 0 0 0-2.7886 0.51552 46.659 30.023 0 0 0-2.7335 0.6271 46.659 30.023 0 0 0-2.6678 0.73432 46.659 30.023 0 0 0-2.5915 0.83967 46.659 30.023 0 0 0-2.5057 0.94252 46.659 30.023 0 0 0-2.4093 1.0398 46.659 30.023 0 0 0-2.3044 1.1351 46.659 30.023 0 0 0-2.1905 1.2243 46.659 30.023 0 0 0-2.0676 1.3103 46.659 30.023 0 0 0-1.9373 1.3901 46.659 30.023 0 0 0-1.7996 1.4649 46.659 30.023 0 0 0-1.6539 1.5341 46.659 30.023 0 0 0-1.2984 1.3801 41.697 30.066 0 0 0-0.12078 0.36093 41.697 30.066 0 0 0 40.842 24.025 41.697 30.066 0 0 0 40.737-23.706z" fill="none" stroke="#000" stroke-linecap="round" stroke-width="2.4131"/><path d="m50.782 32.481a41.471 25.779 0 0 0-40.501 20.289 46.406 25.742 0 0 1 1.2914-1.1833 46.406 25.742 0 0 1 1.6449-1.3153 46.406 25.742 0 0 1 1.7898-1.256 46.406 25.742 0 0 1 1.9268-1.1918 46.406 25.742 0 0 1 2.0564-1.1234 46.406 25.742 0 0 1 2.1786-1.0497 46.406 25.742 0 0 1 2.2919-0.97325 46.406 25.742 0 0 1 2.3962-0.89149 46.406 25.742 0 0 1 2.4921-0.8081 46.406 25.742 0 0 1 2.5775-0.71992 46.406 25.742 0 0 1 2.6533-0.6296 46.406 25.742 0 0 1 2.7187-0.53767 46.406 25.742 0 0 1 2.7735-0.442 46.406 25.742 0 0 1 2.8177-0.3458 46.406 25.742 0 0 1 2.8514-0.24853 46.406 25.742 0 0 1 2.873-0.14911 46.406 25.742 0 0 1 2.8846-0.04966 46.406 25.742 0 0 1 2.8846 0.04966 46.406 25.742 0 0 1 2.873 0.14911 46.406 25.742 0 0 1 2.8509 0.24799 46.406 25.742 0 0 1 2.8177 0.3458 46.406 25.742 0 0 1 2.7735 0.442 46.406 25.742 0 0 1 2.7187 0.53713 46.406 25.742 0 0 1 2.6528 0.6296 46.406 25.742 0 0 1 2.5775 0.71992 46.406 25.742 0 0 1 2.4921 0.80757 46.406 25.742 0 0 1 2.3962 0.89148 46.406 25.742 0 0 1 2.2919 0.97272 46.406 25.742 0 0 1 2.1786 1.0497 46.406 25.742 0 0 1 2.0569 1.1229 46.406 25.742 0 0 1 1.9268 1.1919 46.406 25.742 0 0 1 1.7898 1.2554 46.406 25.742 0 0 1 1.6454 1.3153 46.406 25.742 0 0 1 1.4947 1.3693 46.406 25.742 0 0 1 0.37724 0.39978 41.471 25.779 0 0 0 0.10748-0.27739 41.471 25.779 0 0 0-40.623-20.594z" fill="#fff" stroke="#000" stroke-linecap="round" stroke-width="2.2283"/></g></g><g fill="none" stroke="#000" stroke-linecap="round" stroke-width="3.8052"><path transform="matrix(.78865 0 0 -.78865 456.82 435.42)" d="m132.43 155.88-5.5664-11.279-12.447-1.8086 9.0067-8.7793-2.1262-12.397 11.133 5.8529 11.133-5.8529-2.1262 12.397 9.0066 8.7793-12.447 1.8086z"/><path transform="matrix(.5751 .53966 .53966 -.5751 483.27 458.35)" d="m132.43 155.88-5.5664-11.279-12.447-1.8086 9.0067-8.7793-2.1262-12.397 11.133 5.8529 11.133-5.8529-2.1262 12.397 9.0066 8.7793-12.447 1.8086z"/><path transform="matrix(-.5305 .58355 -.58355 -.5305 639.13 446.43)" d="m132.43 155.88-5.5664-11.279-12.447-1.8086 9.0067-8.7793-2.1262-12.397 11.133 5.8529 11.133-5.8529-2.1262 12.397 9.0066 8.7793-12.447 1.8086z"/></g></g></svg>
